<?xml version="1.0" encoding="UTF-8" standalone="no"?>
<svg width="37px" height="37px" viewBox="0 0 37 37" version="1.1" xmlns="http://www.w3.org/2000/svg" xmlns:xlink="http://www.w3.org/1999/xlink" xmlns:sketch="http://www.bohemiancoding.com/sketch/ns">
    <!-- Generator: Sketch 3.0.1 (7597) - http://www.bohemiancoding.com/sketch -->
    <title>icon-facebook</title>
    <description>Created with Sketch.</description>
    <defs></defs>
    <g id="Page-1" stroke="none" stroke-width="1" fill="none" fill-rule="evenodd" sketch:type="MSPage">
        <g id="Selections" sketch:type="MSArtboardGroup" transform="translate(-110.000000, -914.000000)" fill="#802E13" opacity="0.4">
            <g id="share" sketch:type="MSLayerGroup" transform="translate(51.000000, 896.000000)">
                <path d="M95.114,36.9585 C95.114,27.017 87.055,18.9585 77.114,18.9585 C67.1735,18.9585 59.114,27.017 59.114,36.9585 C59.114,46.2295 66.1245,53.861 75.1325,54.8475 L75.1325,41.125 L72.065,41.125 L72.065,35.9615 L75.1325,35.9615 L75.1325,31.737 C75.1325,30.963 74.977,25.7935 81.5925,25.7935 L86.2615,25.7935 L86.2615,31.171 L82.8265,31.171 C82.148,31.171 81.4605,31.8815 81.4605,32.4095 L81.4605,35.941 L86.254,35.941 C86.062,38.649 85.6665,41.125 85.6665,41.125 L81.436,41.125 L81.436,54.4325 C89.2895,52.4965 95.114,45.409 95.114,36.9585" id="icon-facebook" sketch:type="MSShapeGroup"></path>
            </g>
        </g>
    </g>
</svg>