<?xml version="1.0" encoding="UTF-8" standalone="no"?>
<svg width="40px" height="43px" viewBox="0 0 40 43" version="1.1" xmlns="http://www.w3.org/2000/svg" xmlns:xlink="http://www.w3.org/1999/xlink" xmlns:sketch="http://www.bohemiancoding.com/sketch/ns">
    <!-- Generator: Sketch 3.0.1 (7597) - http://www.bohemiancoding.com/sketch -->
    <title>Log Out</title>
    <description>Created with Sketch.</description>
    <defs></defs>
    <g id="Page-1" stroke="none" stroke-width="1" fill="none" fill-rule="evenodd" sketch:type="MSPage">
        <g id="Menu" sketch:type="MSArtboardGroup" transform="translate(-58.000000, -1014.000000)" fill-opacity="0.5" fill="#FFFFFF">
            <path d="M90.4996615,1022.83983 C89.2228615,1021.70292 87.2638154,1021.81375 86.1238154,1023.08833 C84.9844,1024.36233 85.0966462,1026.3165 86.3734462,1027.45342 C89.0147385,1029.81183 90.6668615,1033.20508 90.6680308,1037.01308 C90.6557538,1044.08775 84.9189231,1049.81258 77.8292923,1049.82367 C70.7396615,1049.81258 65.0022462,1044.08775 64.9905538,1037.01308 C64.9917231,1033.18758 66.6596308,1029.7815 69.3213846,1027.4225 C70.6034462,1026.29025 70.7209538,1024.3355 69.5862154,1023.058 C68.4508923,1021.77992 66.4930154,1021.6615 65.2127077,1022.79433 L65.2115385,1022.79258 C61.2823385,1026.26225 58.7907077,1031.36117 58.7912923,1037.01308 C58.7930462,1047.5055 67.3144,1056.00758 77.8292923,1056.00933 C88.3436,1056.00758 96.8643692,1047.5055 96.8661231,1037.01308 C96.8672923,1031.38567 94.3990462,1026.30658 90.4996615,1022.83983 Z M77.8842462,1040.14792 C79.596,1040.14792 80.9832923,1038.76367 80.9832923,1037.05683 L80.9832923,1017.15758 C80.9832923,1015.449 79.596,1014.06417 77.8842462,1014.06417 C76.1719077,1014.06417 74.7846154,1015.449 74.7846154,1017.15758 L74.7846154,1037.05683 C74.7846154,1038.76367 76.1719077,1040.14792 77.8842462,1040.14792 Z" id="Log-Out" sketch:type="MSShapeGroup"></path>
        </g>
    </g>
</svg>