<?xml version="1.0" encoding="UTF-8" standalone="no"?>
<svg width="42px" height="53px" viewBox="0 0 42 53" version="1.1" xmlns="http://www.w3.org/2000/svg" xmlns:xlink="http://www.w3.org/1999/xlink" xmlns:sketch="http://www.bohemiancoding.com/sketch/ns">
    <!-- Generator: Sketch 3.0.1 (7597) - http://www.bohemiancoding.com/sketch -->
    <title>Tags</title>
    <description>Created with Sketch.</description>
    <defs></defs>
    <g id="Page-1" stroke="none" stroke-width="1" fill="none" fill-rule="evenodd" sketch:type="MSPage">
        <g id="Menu" sketch:type="MSArtboardGroup" transform="translate(-57.000000, -327.000000)" fill="#FFFFFF">
            <path d="M82.2626491,372.077292 C81.0132281,372.077292 79.8414912,371.600583 78.9610702,370.733583 L58.8228772,350.902375 L59.3407719,356.643417 C59.4026316,357.340417 59.8658596,358.313667 60.3672105,358.808083 L81.3498596,379.470875 C81.8512105,379.964583 82.6726491,379.964583 83.1747193,379.470875 L98.4447018,364.432958 C98.9460526,363.938542 98.9460526,363.130333 98.4447018,362.635917 L96.1148947,360.342333 L85.5606316,370.735708 C84.6802105,371.602 83.5084737,372.077292 82.2626491,372.077292 Z M77.4620526,330.883458 C76.9599825,330.389042 75.9716667,329.932167 75.2638772,329.869125 L63.9155088,328.85125 C63.8608421,328.846292 63.8025789,328.843458 63.7443158,328.843458 C63.0559474,328.843458 62.1798421,329.179208 61.7173333,329.636083 L59.1271404,332.186083 C58.6265088,332.679792 58.2661404,333.654458 58.3301579,334.349333 L59.3407719,345.55375 C59.4026316,346.250042 59.8658596,347.223292 60.3672105,347.718417 L81.3498596,368.3805 C81.6008947,368.627 81.9303333,368.750958 82.2626491,368.750958 C82.592807,368.750958 82.9229649,368.627 83.1747193,368.3805 L98.4447018,353.343292 C98.9460526,352.848875 98.9460526,352.03925 98.4447018,351.545542 L77.4620526,330.883458 Z M63.1458596,333.668625 C63.691807,333.131 64.4075088,332.861833 65.1232105,332.861833 C65.8403509,332.861833 66.5582105,333.131708 67.1048772,333.670042 C68.1982105,334.746708 68.1967719,336.492042 67.1048772,337.566583 C66.5582105,338.106333 65.8417895,338.374792 65.126807,338.374792 C64.410386,338.374792 63.6939649,338.105625 63.1472982,337.566583 C62.0532456,336.489917 62.051807,334.745292 63.1458596,333.668625 L63.1458596,333.668625 Z" id="Tags" sketch:type="MSShapeGroup"></path>
        </g>
    </g>
</svg>