<?xml version="1.0" encoding="UTF-8" standalone="no"?>
<!-- Created with Inkscape (http://www.inkscape.org/) -->

<svg
   xmlns:svg="http://www.w3.org/2000/svg"
   xmlns="http://www.w3.org/2000/svg"
   version="1.1"
   width="214"
   height="38"
   id="svg3196">
  <defs
     id="defs3198" />
  <g
     transform="translate(-361.98782,-441.33338)"
     id="layer1">
    <path
       d="m 23.375,3.28125 4.375,13.3125 0.125,0 -4.375,-13.3125 -0.125,0 z m 19.09375,15.09375 -0.125,0.09375 -11.3125,8.25 4.3125,13.375 L 35.375,40.1875 35.46875,40.125 31.1875,26.75 42.5,18.46875 42.46875,18.375 z M 22.4375,33 11.09375,41.1875 11.1875,41.25 22.5,33.03125 22.4375,33 z"
       transform="translate(358.93922,438.08338)"
       id="path4051"
       style="font-size:medium;font-style:normal;font-variant:normal;font-weight:normal;font-stretch:normal;text-indent:0;text-align:start;text-decoration:none;line-height:normal;letter-spacing:normal;word-spacing:normal;text-transform:none;direction:ltr;block-progression:tb;writing-mode:lr-tb;text-anchor:start;color:#000000;fill:#000000;fill-opacity:1;stroke:none;stroke-width:2.38594294;marker:none;visibility:visible;display:inline;overflow:visible;enable-background:accumulate;font-family:Andale Mono;-inkscape-font-specification:Andale Mono" />
    <path
       d="m 445.99035,461.40189 c 0,1.285 -0.555,1.6675 -2.6375,2.395 -1.6675,0.62625 -2.95125,0.90375 -3.33375,0.90375 -0.695,0 -1.00625,-0.52125 -1.00625,-1.5975 0,-2.56875 0.7275,-5.69375 3.43625,-5.69375 2.5,0 3.54125,2.70875 3.54125,3.9925 m -27.08375,11.215 c 0,-0.20875 -0.0325,-0.34625 -0.13625,-0.45125 -0.27875,-0.27875 -1.32,-0.45125 -1.84125,-0.9725 -0.38,-0.3825 -0.625,-1.04125 -0.625,-2.56875 l 0,-5.86875 c 0,-0.4525 0.105,-0.72875 0.55625,-0.72875 l 5.9725,0 c 0.45125,0 0.555,0.27625 0.555,0.72875 l 0,5.86875 c 0,1.5275 -0.2425,2.18625 -0.625,2.56875 -0.52125,0.52125 -1.5625,0.69375 -1.84,0.9725 -0.105,0.105 -0.13875,0.2425 -0.13875,0.45125 0,0.90125 0.13875,1.80625 0.2775,1.94375 0.13875,0.14 0.3475,0.17375 0.79875,0.17375 l 9.75625,0 c 0.45125,0 0.65875,-0.0337 0.79875,-0.17375 0.13875,-0.1375 0.27875,-1.0425 0.27875,-1.94375 0,-0.20875 -0.0362,-0.34625 -0.14,-0.45125 -0.2425,-0.2425 -1.32,-0.45125 -1.84125,-0.9725 -0.38,-0.3825 -0.58875,-1.11125 -0.58875,-2.2925 l 0,-16.21375 c 0,-0.8325 0.20875,-1.39 0.52,-1.7 0.55625,-0.55625 1.6675,-0.66125 1.91,-0.905 0.10375,-0.10375 0.14,-0.31125 0.14,-0.485 0,-0.625 -0.14,-1.5625 -0.27875,-1.70125 -0.14,-0.13875 -0.2775,-0.175 -0.79875,-0.175 l -9.41,0 c -0.38125,0 -0.52,0.0362 -0.62375,0.14125 -0.10375,0.10375 -0.20875,0.8325 -0.20875,1.77 0,0.1725 0.035,0.38125 0.105,0.45 0.1725,0.175 1.04125,0.4525 1.38875,0.8 0.38125,0.3825 0.52,0.79875 0.52,1.97875 l 0,4.6175 c 0,0.17375 -0.17375,0.41625 -0.41625,0.41625 l -6.25,0 c -0.24375,0 -0.4175,-0.2425 -0.4175,-0.41625 l 0,-4.6175 c 0,-1.18 0.13875,-1.59625 0.52125,-1.97875 0.3475,-0.3475 1.215,-0.625 1.38875,-0.8 0.07,-0.0688 0.105,-0.2775 0.105,-0.45 0,-0.9375 -0.105,-1.66625 -0.20875,-1.77 -0.10375,-0.105 -0.24375,-0.14125 -0.625,-0.14125 l -9.40875,0 c -0.52125,0 -0.66,0.0362 -0.8,0.175 -0.1375,0.13875 -0.2775,1.07625 -0.2775,1.70125 0,0.17375 0.035,0.38125 0.14,0.485 0.2425,0.24375 1.35375,0.34875 1.90875,0.905 0.3125,0.31 0.52125,0.8675 0.52125,1.7 l 0,16.21375 c 0,1.18125 -0.20875,1.91 -0.59,2.2925 -0.52125,0.52125 -1.5975,0.73 -1.84,0.9725 -0.105,0.105 -0.14,0.2425 -0.14,0.45125 0,0.90125 0.14,1.80625 0.2775,1.94375 0.14,0.14 0.27875,0.17375 0.8,0.17375 l 9.75625,0 c 0.45125,0 0.65875,-0.0337 0.79875,-0.17375 0.13875,-0.1375 0.275,-1.0425 0.275,-1.94375 m 32.2575,-0.48625 c 1.00625,-1.00625 1.25125,-1.5975 1.25125,-2.08375 0,-0.52125 -0.14,-0.9375 -0.55625,-1.35375 -0.4525,-0.45125 -0.8325,-0.52125 -1.18125,-0.52125 -0.48625,0 -0.695,0.13875 -1.00625,0.4525 -1.5275,1.5275 -3.4725,2.36 -5.83375,2.36 -2.395,0 -3.88875,-1.59625 -3.88875,-2.605 0,-0.27625 0.24375,-0.52 0.8675,-0.69375 6.6675,-2.08375 9.445,-3.47125 10.48625,-4.51375 0.59,-0.555 0.8325,-1.215 0.8325,-1.805 0,-2.63875 -3.8175,-7.325 -9.68625,-7.325 -2.43,0 -4.895,0.97 -6.735,2.81125 -1.84,1.84125 -2.98625,4.44375 -2.98625,7.98625 0,3.4025 1.07625,5.76375 2.95125,7.63875 1.875,1.875 4.5825,2.8125 7.535,2.8125 3.02,0 5.8675,-1.07625 7.95,-3.16 m 10.8675,-16.91 c 0,-0.45 -0.24375,-0.625 -0.625,-0.625 l -6.70125,0 c -0.3825,0 -0.52,0 -0.62625,0.14 -0.1375,0.13875 -0.275,1.07625 -0.275,1.7025 0,0.1725 0.0688,0.31 0.1375,0.415 0.24375,0.3125 0.76375,0.41625 1.21625,0.79875 0.31125,0.3125 0.45125,0.9725 0.45125,1.97875 l 0,9.27 c 0,1.18125 -0.14,1.945 -0.4875,2.2925 -0.52125,0.52125 -1.38875,0.76375 -1.63125,1.00625 -0.0688,0.0712 -0.10375,0.20875 -0.10375,0.4525 0,0.9025 0.13875,1.77125 0.2775,1.90875 0.105,0.10375 0.2775,0.17375 0.65875,0.17375 l 8.925,0 c 0.38125,0 0.555,-0.07 0.65875,-0.17375 0.13875,-0.1375 0.2425,-1.00625 0.2425,-1.90875 0,-0.24375 -0.0337,-0.38125 -0.10375,-0.4525 -0.2425,-0.2425 -1.04125,-0.485 -1.5625,-1.00625 -0.34625,-0.3475 -0.45125,-1.11125 -0.45125,-2.2925 l 0,-13.68 z m -3.715,-8.74875 c -1.90875,0 -3.4725,1.49375 -3.4725,3.36875 0,1.90875 1.56375,3.4025 3.4725,3.4025 1.945,0 3.5075,-1.49375 3.5075,-3.4025 0,-1.875 -1.5625,-3.36875 -3.5075,-3.36875 m 26.90875,13.50625 c 0,-3.88875 -2.01375,-5.8675 -5.17375,-5.8675 -1.49375,0 -3.09,0.485 -4.6875,1.45875 -0.555,0.3475 -0.72875,0.45125 -0.8675,0.45125 -0.55625,0 -0.17375,-1.425 -1.18125,-1.425 l -6.11,0 c -0.3825,0 -0.48625,0 -0.625,0.14 -0.17375,0.17375 -0.3125,1.07625 -0.3125,1.7025 0,0.1725 0.035,0.31 0.13875,0.415 0.2775,0.27875 0.79875,0.3825 1.215,0.79875 0.31375,0.3125 0.45,0.9725 0.45,1.97875 l 0,9.27 c 0,1.18125 -0.10375,1.945 -0.45,2.2925 -0.48625,0.485 -1.31875,0.76375 -1.5625,1.00625 -0.0687,0.0712 -0.105,0.20875 -0.105,0.4525 0,0.9025 0.105,1.77125 0.245,1.90875 0.10375,0.10375 0.31125,0.17375 0.69375,0.17375 l 8.75,0 c 0.41625,0 0.55375,-0.07 0.6575,-0.17375 0.175,-0.17375 0.315,-1.00625 0.315,-1.90875 0,-0.24375 -0.0362,-0.38125 -0.10625,-0.4525 -0.27625,-0.27625 -1.075,-0.52125 -1.56125,-1.00625 -0.3475,-0.3475 -0.52,-1.11125 -0.52,-2.2925 l 0,-6.83875 c 0,-2.8125 1.56,-3.68 2.7075,-3.68 1.18,0 1.84,0.8675 1.84,2.70625 l 0,9.62 c 0,2.56875 1.6325,4.26875 4.58375,4.26875 3.2625,0 4.65125,-2.36 4.65125,-2.84625 0,-0.41625 -0.65875,-1.25 -1.075,-1.25 -0.4875,0 -1.18125,0.625 -1.52875,0.625 -0.2425,0 -0.38125,-0.17375 -0.38125,-0.72875 l 0,-10.79875 z m 64.3375,12.1525 c 1.00625,-1.00625 1.24875,-1.5975 1.24875,-2.08375 0,-0.52125 -0.1375,-0.9375 -0.55375,-1.35375 -0.4525,-0.45125 -0.83625,-0.52125 -1.18125,-0.52125 -0.48625,0 -0.695,0.13875 -1.0075,0.4525 -1.5275,1.5275 -3.47125,2.36 -5.8325,2.36 -2.395,0 -3.88875,-1.59625 -3.88875,-2.605 0,-0.27625 0.2425,-0.52 0.8675,-0.69375 6.66625,-2.08375 9.44375,-3.47125 10.48625,-4.51375 0.59,-0.555 0.8325,-1.215 0.8325,-1.805 0,-2.63875 -3.81875,-7.325 -9.68625,-7.325 -2.4325,0 -4.89625,0.97 -6.7375,2.81125 -1.83875,1.84125 -2.985,4.44375 -2.985,7.98625 0,3.4025 1.07625,5.76375 2.95125,7.63875 1.875,1.875 4.58375,2.8125 7.53375,2.8125 3.02125,0 5.87,-1.07625 7.9525,-3.16 m -5.17375,-10.72875 c 0,1.285 -0.555,1.6675 -2.63875,2.395 -1.66625,0.62625 -2.95125,0.90375 -3.335,0.90375 -0.6925,0 -1.00625,-0.52125 -1.00625,-1.5975 0,-2.56875 0.73,-5.69375 3.43875,-5.69375 2.49875,0 3.54125,2.70875 3.54125,3.9925 m -37.49875,10.72875 c 1.00625,-1.00625 1.25125,-1.5975 1.25125,-2.08375 0,-0.52125 -0.14,-0.9375 -0.55625,-1.35375 -0.45125,-0.45125 -0.8325,-0.52125 -1.18,-0.52125 -0.48875,0 -0.695,0.13875 -1.0075,0.4525 -1.5275,1.5275 -3.4725,2.36 -5.83375,2.36 -2.395,0 -3.88875,-1.59625 -3.88875,-2.605 0,-0.27625 0.24375,-0.52 0.86875,-0.69375 6.66625,-2.08375 9.44375,-3.47125 10.485,-4.51375 0.59125,-0.555 0.83375,-1.215 0.83375,-1.805 0,-2.63875 -3.81875,-7.325 -9.6875,-7.325 -2.43,0 -4.895,0.97 -6.735,2.81125 -1.84,1.84125 -2.98625,4.44375 -2.98625,7.98625 0,3.4025 1.07625,5.76375 2.95,7.63875 1.87625,1.875 4.585,2.8125 7.53625,2.8125 3.02,0 5.8675,-1.07625 7.95,-3.16 m -5.1725,-10.72875 c 0,1.285 -0.55625,1.6675 -2.63875,2.395 -1.6675,0.62625 -2.95125,0.90375 -3.33375,0.90375 -0.695,0 -1.00625,-0.52125 -1.00625,-1.5975 0,-2.56875 0.72875,-5.69375 3.43625,-5.69375 2.5,0 3.5425,2.70875 3.5425,3.9925 m 69.50875,-1.42375 c 0,-3.88875 -2.0125,-5.8675 -5.17125,-5.8675 -1.49375,0 -3.09125,0.485 -4.6875,1.45875 -0.55625,0.3475 -0.73125,0.45125 -0.8675,0.45125 -0.55625,0 -0.175,-1.425 -1.18125,-1.425 l -6.11,0 c -0.3825,0 -0.4875,0 -0.62625,0.14 -0.17375,0.17375 -0.3125,1.07625 -0.3125,1.7025 0,0.1725 0.035,0.31 0.13875,0.415 0.27875,0.27875 0.8,0.3825 1.21625,0.79875 0.31125,0.3125 0.45125,0.9725 0.45125,1.97875 l 0,9.27 c 0,1.18125 -0.105,1.945 -0.45125,2.2925 -0.4875,0.485 -1.32,0.76375 -1.5625,1.00625 -0.07,0.0712 -0.105,0.20875 -0.105,0.4525 0,0.9025 0.105,1.77125 0.24125,1.90875 0.10625,0.10375 0.315,0.17375 0.69625,0.17375 l 8.74875,0 c 0.4175,0 0.55625,-0.07 0.66125,-0.17375 0.17375,-0.17375 0.31125,-1.00625 0.31125,-1.90875 0,-0.24375 -0.0337,-0.38125 -0.10375,-0.4525 -0.2775,-0.27625 -1.07625,-0.52125 -1.5625,-1.00625 -0.3475,-0.3475 -0.5225,-1.11125 -0.5225,-2.2925 l 0,-6.83875 c 0,-2.8125 1.56375,-3.68 2.71,-3.68 1.18125,0 1.84,0.8675 1.84,2.70625 l 0,9.62 c 0,2.56875 1.6325,4.26875 4.58375,4.26875 3.26375,0 4.6525,-2.36 4.6525,-2.84625 0,-0.41625 -0.66,-1.25 -1.07625,-1.25 -0.48625,0 -1.18,0.625 -1.5275,0.625 -0.24375,0 -0.38375,-0.17375 -0.38375,-0.72875 l 0,-10.79875 z m -54.51125,-12.88125 -6.665,0 c -0.4175,0 -0.59125,0 -0.69375,0.175 -0.14,0.1725 -0.245,1.04125 -0.245,1.63125 0,0.2075 0.0362,0.34625 0.105,0.485 0.2425,0.24375 1.18125,0.48625 1.5975,0.90375 0.34625,0.3475 0.52125,1.04125 0.52125,3.67875 l 0,13.88875 c 0,2.3275 -0.2425,3.05625 -0.52125,3.33375 -0.48625,0.485 -1.31875,0.76375 -1.5625,1.00625 -0.0687,0.0712 -0.10375,0.20875 -0.10375,0.4525 0,0.9025 0.10375,1.77125 0.2425,1.90875 0.105,0.10375 0.2425,0.17375 0.695,0.17375 l 8.715,0 c 0.45125,0 0.58875,-0.07 0.69375,-0.17375 0.13875,-0.1375 0.3125,-1.00625 0.3125,-1.90875 0,-0.24375 -0.0337,-0.38125 -0.13875,-0.4525 -0.2425,-0.2425 -1.07625,-0.52125 -1.52875,-1.00625 -0.38,-0.3475 -0.52,-1.11125 -0.52,-2.2925 l 0,-0.7975 c 0,-0.45125 0.14,-0.59125 0.90375,-1.355 0.34625,-0.31125 0.6575,-0.55375 0.9025,-0.55375 0.3475,0 0.62375,0.2425 4.44375,7.95 0.2425,0.48625 0.34625,0.59 0.97125,0.59 l 5.65875,0 c 0.4175,0 0.5575,-0.07 0.66125,-0.17375 0.13875,-0.1375 0.2775,-1.00625 0.2775,-1.90875 0,-0.24375 -0.0337,-0.38125 -0.105,-0.4525 -0.2425,-0.2425 -1.7,-0.41625 -2.0125,-1.00625 -5.03375,-8.50625 -5.17375,-8.785 -5.17375,-9.305 0,-0.45125 2.2225,-2.6725 4.0625,-4.13125 1.18125,-0.9375 1.94375,-0.31375 1.94375,-1.42375 0,-1.285 -0.1725,-1.7375 -0.41625,-1.7375 l -8.40125,0 c -0.73,0 -0.79875,0.41625 -0.79875,1.98 0,0.52 1.4575,0.59 1.4575,1.31875 0,0.625 -3.54125,4.02875 -4.13125,4.02875 -0.20875,0 -0.24375,-0.13875 -0.24375,-0.73 l 0,-13.12375 c 0,-0.55625 -0.3825,-0.9725 -0.90375,-0.9725"
       id="path50"
       style="fill:#00a650;fill-opacity:1;fill-rule:nonzero;stroke:none" />
    <path
       d="m 340.92648,441.67766 5.4986,16.7228 17.60348,0.0618 -14.20516,10.3971 5.38095,16.76102 -14.27787,-10.29703 -14.27787,10.29703 5.38096,-16.76102 -14.20517,-10.3971 17.60349,-0.0618 5.49859,-16.7228 z"
       transform="matrix(0.83824299,0,0,0.83824299,95.573749,71.418308)"
       id="path3239"
       style="fill:#ff0000" />
    <path
       d="m 571.24464,446.36525 c 0.58365,10e-6 1.1436,0.14666 1.67986,0.43996 0.53624,0.29036 0.95695,0.7081 1.26212,1.25323 0.30811,0.54515 0.46217,1.11547 0.46218,1.71097 -1e-5,0.59255 -0.1511,1.15843 -0.4533,1.69764 -0.29924,0.53625 -0.71846,0.95547 -1.25767,1.25768 -0.53625,0.29923 -1.10065,0.44885 -1.69319,0.44885 -0.59255,0 -1.15843,-0.14962 -1.69764,-0.44885 -0.53625,-0.30221 -0.95547,-0.72143 -1.25768,-1.25768 -0.29923,-0.53921 -0.44885,-1.10509 -0.44885,-1.69764 0,-0.5955 0.15258,-1.16582 0.45774,-1.71097 0.30813,-0.54513 0.73031,-0.96287 1.26657,-1.25323 0.53625,-0.2933 1.0962,-0.43995 1.67986,-0.43996 m 0.005,0.66661 c -0.46812,0 -0.91697,0.11704 -1.34656,0.35108 -0.42959,0.23406 -0.76882,0.57033 -1.0177,1.00881 -0.24591,0.43849 -0.36886,0.8977 -0.36886,1.37766 0,0.477 0.11999,0.93178 0.35998,1.36434 0.24294,0.43255 0.58069,0.7703 1.01325,1.01324 0.43255,0.24295 0.88585,0.36441 1.35989,0.36441 0.47699,0 0.93029,-0.12146 1.35988,-0.36441 0.43256,-0.24294 0.77031,-0.58069 1.01325,-1.01324 0.24294,-0.43256 0.36441,-0.88734 0.36442,-1.36434 -1e-5,-0.47996 -0.12444,-0.93917 -0.3733,-1.37766 -0.24591,-0.43848 -0.58515,-0.77475 -1.0177,-1.00881 -0.4296,-0.23404 -0.87845,-0.35108 -1.34655,-0.35108 m -1.5421,4.55962 0,-3.61303 0.73327,0 c 0.68735,0 1.0725,0.003 1.15546,0.009 0.24294,0.0208 0.43107,0.0697 0.56441,0.14665 0.13627,0.0741 0.24886,0.18962 0.33774,0.34665 0.0918,0.15406 0.13776,0.3259 0.13777,0.51551 -1e-5,0.26072 -0.0859,0.48441 -0.25776,0.67105 -0.16888,0.18369 -0.40738,0.29776 -0.7155,0.34219 0.10962,0.0415 0.19406,0.0874 0.25331,0.13777 0.0593,0.0474 0.14074,0.13925 0.24444,0.27554 0.0266,0.0355 0.11554,0.1822 0.26663,0.43996 l 0.42663,0.72883 -0.90659,0 -0.30219,-0.58662 c -0.20443,-0.39404 -0.37331,-0.64143 -0.50662,-0.74217 -0.13333,-0.10369 -0.30221,-0.15553 -0.50663,-0.15553 l -0.1911,0 0,1.48432 -0.73327,0 m 0.73327,-2.05317 0.29776,0 c 0.42366,10e-6 0.68586,-0.0163 0.7866,-0.0489 0.10369,-0.0326 0.18516,-0.0889 0.24442,-0.16887 0.0592,-0.083 0.0889,-0.17628 0.0889,-0.27998 0,-0.10073 -0.0296,-0.18961 -0.0889,-0.26664 -0.0563,-0.08 -0.13777,-0.13629 -0.24442,-0.16888 -0.10666,-0.0355 -0.36886,-0.0534 -0.7866,-0.0534 l -0.29776,0 0,0.98657"
       id="path4083"
       style="font-size:40px;font-style:normal;font-variant:normal;font-weight:bold;font-stretch:normal;fill:#00a650;fill-opacity:1;stroke:none;font-family:Arial;-inkscape-font-specification:Andale Mono Bold" />
  </g>
</svg>
