<?xml version="1.0" encoding="UTF-8" standalone="no"?>
<svg width="358px" height="293px" viewBox="0 0 358 293" version="1.1" xmlns="http://www.w3.org/2000/svg" xmlns:xlink="http://www.w3.org/1999/xlink" xmlns:sketch="http://www.bohemiancoding.com/sketch/ns">
    <!-- Generator: Sketch 3.0.1 (7597) - http://www.bohemiancoding.com/sketch -->
    <title>logo slice</title>
    <description>Created with Sketch.</description>
    <defs></defs>
    <g id="Page-1" stroke="none" stroke-width="1" fill="none" fill-rule="evenodd" sketch:type="MSPage">
        <g id="Splash" sketch:type="MSArtboardGroup" transform="translate(-140.000000, -166.000000)" fill="#FCFCFC">
            <g id="nibs-confections" sketch:type="MSLayerGroup" transform="translate(108.000000, 116.000000)">
                <g id="nibs-logo" transform="translate(32.000000, 42.000000)" sketch:type="MSShapeGroup">
                    <path d="M129.524215,49.6085666 C124.426933,46.4593849 118.773026,45.225682 112.834756,44.9815587 C109.742224,44.8543303 106.656677,44.684792 103.646921,43.8959009 C102.429557,43.576777 101.170287,43.4873352 99.9151172,43.5178402 C97.9046327,43.5665442 96.1794016,44.1254423 95.5276406,46.3234953 C95.4663861,46.5292367 95.3669948,46.6971346 95.1803884,46.8232909 C93.8812178,47.6999983 93.7096222,49.0178917 93.906938,50.3737536 C94.1798548,52.2474602 94.918147,53.975084 96.0531123,55.4854881 C98.0482123,58.1406027 99.9610732,60.8411835 101.55588,63.7636702 C102.448865,65.4005427 103.295012,67.0696378 104.373699,68.6004472 C105.813657,70.2098979 106.747863,72.1740847 108.076443,73.861654 C109.915048,76.2784563 112.461071,77.8565732 114.890317,79.5855728 C117.80118,81.6575774 121.043243,82.4453093 124.586654,82.19883 C126.922566,82.0362043 129.257203,81.8507154 131.592306,81.6756059 C134.557055,81.4535478 137.522584,81.21521 140.456413,81.8982832 C141.587248,82.1617423 142.69825,82.0110002 143.801198,81.703741 C145.889707,81.1221726 146.60318,79.6451102 145.742419,77.6857182 C145.243347,76.54926 144.635674,75.4478736 144.263244,74.2708191 C142.851027,69.8096828 141.549746,65.319033 139.495648,61.0851634 C137.19964,56.3511864 134.043406,52.4007951 129.524215,49.6085666 Z M34,262 L50.5714286,262 L50.5714286,141.804878 C58,132.270169 68,123.602251 75.4285714,123.602251 C84.8571429,123.602251 85.7142857,131.981238 85.7142857,146.716698 L85.7142857,262 L102,262 L102,143.538462 C102,116.378987 95.1428571,108 81.1428571,108 C68.2857143,108 56.8571429,118.979362 50.5714286,127.64728 L50.5714286,110.022514 L34,110.022514 L34,262 Z M129,260 L145,260 L145,109 L129,109 L129,260 Z M243,185.47319 C243,126.391421 231.834677,107.658177 212.653226,107.658177 C200.342742,107.658177 192.612903,118.033512 188.604839,125.815013 L188.604839,48 L172,48 L172,261.270777 L188.604839,261.270777 L188.604839,244.55496 C193.758065,256.08311 201.487903,263 212.366935,263 C231.548387,263 243,244.843164 243,185.47319 Z M208.863636,248 C201.666667,248 195.621212,241.670534 189,229.87471 L189,141.837587 C192.742424,134.932715 199.651515,124 208.575758,124 C221.818182,124 227,141.837587 227,186.431555 C227,231.888631 222.106061,248 208.863636,248 Z M292.88,264 C314.192,264 325.424,249.59633 325.424,229.143119 C325.424,209.554128 313.04,194.862385 299.792,179.594495 C288.848,167.207339 277.328,155.39633 277.328,139.840367 C277.328,129.181651 283.376,121.691743 292.592,121.691743 C302.672,121.691743 307.568,129.757798 311.312,142.433028 L326,138.111927 C319.664,117.946789 310.16,107 292.304,107 C274.736,107 260.912,119.963303 260.912,140.12844 C260.912,161.157798 274.736,176.425688 287.408,191.405505 C298.64,204.080734 309.008,215.315596 309.008,229.719266 C309.008,242.106422 303.824,249.59633 292.592,249.59633 C281.36,249.59633 273.584,241.530275 268.688,226.262385 L254,230.583486 C261.2,252.477064 271.856,264 292.88,264 L292.88,264 Z"></path>
                </g>
            </g>
        </g>
    </g>
</svg>