<?xml version="1.0" encoding="UTF-8" standalone="no"?>
<svg width="42px" height="42px" viewBox="0 0 42 42" version="1.1" xmlns="http://www.w3.org/2000/svg" xmlns:xlink="http://www.w3.org/1999/xlink" xmlns:sketch="http://www.bohemiancoding.com/sketch/ns">
    <!-- Generator: Sketch 3.0.1 (7597) - http://www.bohemiancoding.com/sketch -->
    <title>Help</title>
    <description>Created with Sketch.</description>
    <defs></defs>
    <g id="Page-1" stroke="none" stroke-width="1" fill="none" fill-rule="evenodd" sketch:type="MSPage">
        <g id="Menu" sketch:type="MSArtboardGroup" transform="translate(-57.000000, -929.000000)" fill-opacity="0.5" fill="#FFFFFF">
            <path d="M78,929 C66.4021667,929 57,938.402167 57,950 C57,961.598417 66.4021667,971 78,971 C89.5978333,971 99,961.598417 99,950 C99,938.402167 89.5978333,929 78,929 L78,929 Z M79.3918333,962.5545 C78.7676667,963.155917 77.9084167,963.437667 76.9406667,963.434167 C76.9330833,963.43475 76.9249167,963.43475 76.9185,963.43475 C75.99625,963.43475 75.1679167,963.145417 74.5565833,962.55625 C73.9306667,961.96475 73.6185833,961.137 73.6244167,960.221167 C73.6185833,959.305917 73.9306667,958.47875 74.56125,957.898333 C75.1784167,957.3185 76.01375,957.037333 76.9406667,957.040833 C77.9049167,957.037333 78.7600833,957.312667 79.3871667,957.898333 C80.0171667,958.47875 80.32925,959.305917 80.3234167,960.221167 C80.32925,961.137 80.0171667,961.96475 79.3918333,962.5545 L79.3918333,962.5545 Z M85.01225,946.493583 C84.685,947.305583 84.272,948.010833 83.7715,948.600583 C83.2879167,949.167583 82.7559167,949.670417 82.1743333,950.105583 C81.6510833,950.49875 81.1715833,950.918167 80.7393333,951.359167 C80.3245833,951.787333 79.9716667,952.279083 79.6776667,952.84725 C79.4151667,953.34775 79.2640833,954.040167 79.2640833,954.933833 L79.2640833,955.517167 L74.3605833,955.517167 L74.3104167,954.98925 C74.2701667,954.577417 74.24975,954.184833 74.24975,953.809167 C74.24975,953.056667 74.3285,952.371833 74.49825,951.75875 C74.7385833,950.87675 75.0745833,950.102667 75.51325,949.43825 C75.9396667,948.793667 76.4296667,948.227833 76.9844167,947.747167 C77.4936667,947.305583 77.9661667,946.884417 78.4048333,946.479 C78.82075,946.0975 79.1590833,945.704333 79.4256667,945.304167 C79.6508333,944.964667 79.7698333,944.560417 79.7733333,944.038917 C79.7686667,943.345917 79.5901667,942.880417 79.2611667,942.52225 C79.0056667,942.23175 78.3826667,941.9885 77.31575,941.993167 C76.9931667,941.993167 76.64375,942.027 76.2675,942.099333 C75.8871667,942.175167 75.5056667,942.281917 75.1235833,942.418417 C74.7356667,942.559 74.3664167,942.718833 74.0146667,942.900833 C73.6565,943.085167 73.3420833,943.271833 73.07025,943.4585 L72.526,943.83475 L70.2749167,939.511667 L70.7019167,939.219417 C71.6154167,938.594083 72.6601667,938.081917 73.8303333,937.679417 C75.03725,937.266417 76.4611667,937.068083 78.1015,937.068083 C80.32925,937.066917 82.1603333,937.612333 83.5008333,938.763833 C84.8395833,939.903083 85.52325,941.506083 85.5150833,943.389667 C85.5150833,944.603 85.3558333,945.6355 85.01225,946.493583 L85.01225,946.493583 Z" id="Help" sketch:type="MSShapeGroup"></path>
        </g>
    </g>
</svg>