<?xml version="1.0" encoding="UTF-8" standalone="no"?>
<svg width="91px" height="80px" viewBox="0 0 91 80" version="1.1" xmlns="http://www.w3.org/2000/svg" xmlns:xlink="http://www.w3.org/1999/xlink" xmlns:sketch="http://www.bohemiancoding.com/sketch/ns">
    <!-- Generator: Sketch 3.0.1 (7597) - http://www.bohemiancoding.com/sketch -->
    <title>icon-nibcount</title>
    <description>Created with Sketch.</description>
    <defs></defs>
    <g id="Page-1" stroke="none" stroke-width="1" fill="none" fill-rule="evenodd" sketch:type="MSPage">
        <g id="Profile" sketch:type="MSArtboardGroup" transform="translate(-412.000000, -571.000000)" fill="#73732E">
            <path d="M482.213067,599 C462.994872,599 446.692211,627.444717 476.053962,616.489217 C481.738861,614.270621 498.168721,599 482.213067,599 Z M459.653747,631.210385 C441.652496,641.192149 451.42645,653.677131 467.754079,642.770421 C486.098134,630.517572 477.598441,621.253749 459.653747,631.210385 C456.485407,632.966946 461.061898,630.429026 459.653747,631.210385 Z M437.048016,599.959302 C429.713461,613.993492 463.254302,608.563189 464,592.122074 C459.27205,582.019716 440.797654,592.77818 437.048016,599.959302 C435.791459,602.363824 440.421466,593.499176 437.048016,599.959302 Z M445.807375,636.814718 C444.933422,633.705265 424.589233,639.995937 428.498372,647.232405 C431.93562,653.593771 446.997798,641.060627 445.807375,636.814718 C445.567488,635.957825 446.342333,638.721307 445.807375,636.814718 Z M424.308107,633.553336 C426.982319,642.460537 450.455341,624.626939 449.993269,618.663586 C449.191898,608.402463 420.766673,621.740681 424.308107,633.553336 C424.764598,635.074381 423.426375,630.616264 424.308107,633.553336 Z M415.139076,615.244439 C403.652639,626.628783 427.259565,620.407157 428.945618,619.401631 C447.029269,608.617552 425.891636,604.596537 415.139076,615.244439 C413.556139,616.813191 418.53312,611.883606 415.139076,615.244439 Z M486.186018,631 C490.054016,631 503.52642,622.165246 502.984084,616.75511 C501.881777,605.812048 471.013855,631 486.186018,631 Z M482.524999,586.177373 C480.856021,586.177373 466.343673,586.379094 470.871109,592.79177 C473.437698,596.431034 491.941231,591.017655 490.962546,587.51908 C488.43881,586.160821 485.626681,585.712896 482.524999,586.177373 Z M432.315831,592.49055 C428.382292,586.848104 414.508987,598.78453 415.013407,602.418745 C415.349297,604.848021 437.08734,599.301422 432.315831,592.49055 C431.663948,591.554897 432.618952,592.923005 432.315831,592.49055 Z M463,572.131789 C463,568.928928 450.589758,573.22161 450.042022,576.366348 C449.141933,581.50909 463,578.599269 463,572.131789 Z M463,621.131789 C463,617.928928 450.589758,622.22161 450.042022,625.366348 C449.141933,630.50909 463,627.599269 463,621.131789 Z M488.986568,640.831278 C489.563725,630.704146 471.310215,651 478.812041,651 C483.753189,648.999065 487.145509,645.609491 488.986568,640.831278 C489.032838,640.017965 488.836799,643.429489 488.986568,640.831278 Z" id="icon-nibcount" sketch:type="MSShapeGroup"></path>
        </g>
    </g>
</svg>