<?xml version="1.0" encoding="UTF-8" standalone="no"?>
<svg width="162px" height="310px" viewBox="0 0 162 310" version="1.1" xmlns="http://www.w3.org/2000/svg" xmlns:xlink="http://www.w3.org/1999/xlink" xmlns:sketch="http://www.bohemiancoding.com/sketch/ns">
    <!-- Generator: Sketch 3.0.1 (7597) - http://www.bohemiancoding.com/sketch -->
    <title>icon-forastero</title>
    <description>Created with Sketch.</description>
    <defs></defs>
    <g id="Page-1" stroke="none" stroke-width="1" fill="none" fill-rule="evenodd" sketch:type="MSPage">
        <g id="Profile-(Forastero)" sketch:type="MSArtboardGroup" transform="translate(-429.000000, -575.000000)">
            <g id="status" sketch:type="MSLayerGroup" transform="translate(48.000000, 547.000000)">
                <g id="icon-forastero" transform="translate(381.000000, 28.000000)" sketch:type="MSShapeGroup">
                    <path d="M59.9076686,0.469472729 C57.1357019,1.43960465 54.3625269,2.40973656 51.5905602,3.37870105 C49.4324379,4.13402639 47.1184378,5.004927 45.890749,6.87864749 C44.1918017,9.46800079 45.2261537,12.8663811 46.4804263,15.6822152 C48.1854154,19.5148784 50.2178687,23.21212 52.5487858,26.7237407 C53.0985874,27.5526139 53.685848,28.391994 54.5244465,28.9500242 C55.9442638,29.8968076 57.8075474,29.8746264 59.5270367,29.7462095 C64.3072897,29.392479 69.0440418,28.4993973 73.6128326,27.0926477 C74.7426447,26.7447544 75.9509998,26.2999647 76.5720944,25.3228282 C77.3611503,24.0818532 76.9128505,22.4801432 76.3956745,21.1119187 C73.6792921,13.9299072 69.6180105,7.22420591 64.4692093,1.41742353 C64.0172844,0.90725789 63.5315257,0.386585405 62.882639,0.148430277 C61.9280384,-0.201797852 60.8671026,0.134421152 59.9076686,0.469472729" id="Fill-1" fill="#648013"></path>
                    <path d="M138.165551,62.3944618 C137.103501,58.3250551 135.978205,54.2070054 133.811145,50.5979281 C131.72523,47.1217294 128.762229,44.2660263 125.835027,41.4530341 C120.190646,36.0322997 114.547459,30.6103789 108.903079,25.1896445 C101.169204,17.7603079 91.306455,9.72471281 80.913874,12.4771978 C74.4425263,14.1915688 69.5606743,19.8507728 63.0511405,21.414469 C56.4234686,23.0054528 49.2946043,20.059582 42.7086984,21.8154776 C40.1896103,22.4881754 37.8912854,23.8228933 35.7970174,25.3687933 C25.8376098,32.7210128 20.3304607,44.6575435 17.2338081,56.5988199 C14.1371554,68.5412827 13.0452721,80.9369564 9.74694927,92.8260304 C7.8817978,99.550636 5.32094364,106.079483 3.6872953,112.863409 C1.29827851,122.785406 0.937897358,133.06214 0.58825604,143.258199 C-0.365202708,171.022705 -1.2351294,199.424316 7.19086837,225.912238 C13.8638863,246.890444 26.0714996,265.658358 38.8805436,283.600526 C46.0798135,293.686248 54.6788419,304.359246 66.9091282,306.613436 C81.4795053,309.298295 95.1011969,298.9919 105.267048,288.272632 C125.546245,266.886298 141.096333,241.091243 150.508009,213.228265 C153.243088,205.12979 155.473393,196.823692 156.423272,188.332513 C157.679833,177.095968 156.676255,165.738408 155.386281,154.506608 C151.819463,123.452171 146.060524,92.6480681 138.165551,62.3944618" id="Fill-2" fill="#96BF1C"></path>
                    <path d="M59.9076686,0.469472729 C57.1357019,1.43960465 54.3625269,2.40973656 51.5905602,3.37870105 C49.4324379,4.13402639 47.1184378,5.004927 45.890749,6.87864749 C44.1918017,9.46800079 45.2261537,12.8663811 46.4804263,15.6822152 C48.1854154,19.5148784 50.2178687,23.21212 52.5487858,26.7237407 C53.0985874,27.5526139 53.685848,28.391994 54.5244465,28.9500242 C55.9442638,29.8968076 57.8075474,29.8746264 59.5270367,29.7462095 C64.3072897,29.392479 69.0440418,28.4993973 73.6128326,27.0926477 C74.7426447,26.7447544 75.9509998,26.2999647 76.5720944,25.3228282 C77.3611503,24.0818532 76.9128505,22.4801432 76.3956745,21.1119187 C73.6792921,13.9299072 69.6180105,7.22420591 64.4692093,1.41742353 C64.0172844,0.90725789 63.5315257,0.386585405 62.882639,0.148430277 C61.9280384,-0.201797852 60.8671026,0.134421152 59.9076686,0.469472729" id="Fill-3" fill="#808033"></path>
                    <path d="M155.386285,154.506608 C154.882708,150.121615 154.324238,145.744927 153.733548,141.371798 C153.886292,136.744775 153.771734,132.114194 153.59751,127.468189 C153.338562,120.53952 153.635696,113.451871 152.560522,106.588455 C151.485348,99.7155478 149.355286,93.1131431 147.614243,86.3909104 C145.899454,79.7683367 144.580844,73.1362716 142.00687,66.7675909 C140.369645,62.7195397 138.378008,58.9538555 136.077302,55.4325731 C135.456779,53.7585402 134.731246,52.1307775 133.811202,50.5979281 C131.725292,47.1217294 128.762298,44.2660263 125.835104,41.4530341 C120.190737,36.0322997 114.547564,30.6103789 108.903198,25.1896445 C101.169342,17.7603079 91.3066171,9.72471281 80.9140617,12.4771978 C74.44273,14.1915688 69.56089,19.8507728 63.0513723,21.414469 C56.4237168,23.0042663 49.2948701,20.059582 42.7089804,21.8154776 C40.1898985,22.4881754 37.8915793,23.8217069 35.7973165,25.3687933 C25.8379334,32.7198264 20.3307979,44.6575435 17.2341529,56.5988199 C14.137508,68.5412827 13.0456274,80.9369564 9.74731261,92.8260304 C7.88216575,99.550636 5.32131791,106.079483 3.68767359,112.863409 C1.2986627,122.785406 0.938282435,133.06214 0.587448668,143.258199 C-0.364814416,171.022705 -1.23473896,199.424316 7.19123802,225.912238 C13.8642395,246.890444 26.0718226,265.658358 38.8808351,283.600526 C46.0800872,293.686248 54.6779011,304.359246 66.9093505,306.613436 C81.4796916,309.298295 95.1013497,298.9919 105.267176,288.272632 C125.546322,266.886298 141.096373,241.091243 150.508025,213.228265 C153.243097,205.12979 155.473397,196.823692 156.423274,188.332513 C157.679831,177.095968 156.676256,165.738408 155.386285,154.506608" id="Fill-4" fill="#9E9E3F"></path>
                    <path d="M160.434227,116.221736 C160.391268,110.14612 160.705114,104.096573 159.21345,98.143014 C158.403178,94.9126392 156.853042,91.7877316 155.057079,88.7955466 C152.934143,81.0952622 150.177549,73.5857666 146.607103,66.4258531 C142.597511,58.3842818 137.704854,51.1212712 132.166606,44.4247019 C131.012655,43.4150617 129.86109,42.4054214 128.71788,41.4076314 C122.627119,36.0845047 117.852602,29.4460016 111.258255,24.678651 C107.568476,22.0123475 103.766524,19.6245247 99.6733994,17.8860948 C103.211625,20.4990722 106.478965,23.781588 109.06372,26.3080587 C108.90978,26.8413194 108.968254,27.4456815 109.359666,27.9125808 C116.93851,36.9543121 126.078232,46.0932154 130.469689,57.195703 C134.583101,67.5954715 135.058046,78.8200166 136.73229,89.7613409 C138.706059,102.66151 142.497271,114.445386 141.35406,127.647736 C140.862408,133.325184 142.013972,138.60091 142.438798,144.222663 C142.553358,145.738308 142.641664,147.249214 142.740711,148.753009 C142.733551,148.773154 142.728777,148.7933 142.721617,148.813445 C140.589135,154.870101 138.960238,160.109091 138.886252,166.612502 C138.819425,172.50444 139.379098,178.113157 138.673839,184.016946 C137.994834,189.708615 137.003176,195.359993 136.287177,201.048107 C135.577145,206.68645 135.367119,212.216956 134.074742,217.781828 C132.799071,223.273228 130.787115,228.563174 128.771579,233.819939 C124.909961,243.889086 120.425423,254.009189 114.807222,263.234599 C112.53154,266.973349 110.194998,270.559231 107.736736,274.129708 C101.514709,281.126088 94.9967357,288.134318 87.0181255,293.117343 C82.879654,295.703065 78.1564504,297.562367 73.2566338,297.907209 C68.3520439,298.253236 65.4952098,294.717125 63.3615342,290.846838 C58.92473,282.799341 56.7886678,272.123462 56.0380626,263.093581 C55.7886565,260.094286 51.0869328,259.001694 50.4258275,262.338721 C49.2933565,268.054091 50.6465937,273.334557 51.8423113,278.949199 C53.0762154,284.74041 52.7945893,289.920149 55.2361443,295.563232 C57.0488139,299.752291 59.736195,302.663895 62.9402884,304.516087 C65.7696759,306.448861 68.9021695,307.13973 72.1038762,307.025967 C75.5621491,307.159875 79.2041949,306.569733 82.7853808,305.363379 C95.2079552,301.180245 104.106624,291.916914 112.723666,282.531526 C116.628244,278.277291 121.517321,273.630813 125.528106,268.49966 C127.347936,267.084741 129.081845,265.579761 130.546062,263.809336 C131.429127,262.741629 132.266846,261.625337 133.085471,260.491269 C135.09862,255.216728 137.756168,250.091501 139.857623,245.218683 C142.885104,238.204527 144.876773,230.779168 147.352934,223.558819 C149.836256,216.313583 152.380437,209.061238 154.3017,201.642989 C158.604851,185.038436 160.720627,167.2773 161.203926,149.808865 C163.339988,139.007373 160.509407,126.920131 160.434227,116.221736" id="Fill-5" fill="#73732E"></path>
                    <path d="M78.3764547,290.334773 C70.9136509,288.565128 67.766955,279.801117 65.6389313,273.310839 C63.0386676,265.384206 61.5689534,257.00093 60.3088619,248.769473 C57.4259609,229.952172 56.1588034,211.143173 54.7526826,192.174053 C54.7267741,191.818226 54.7008657,191.464772 54.6737796,191.108945 C54.6490489,189.262205 54.6207851,187.413092 54.5819225,185.561607 C54.4688675,180.137622 53.9094811,174.769384 53.1534262,169.423681 C52.4421222,158.117881 51.9192431,146.81564 51.8756698,135.418511 C51.8391625,125.978429 52.0617394,116.594094 52.3643969,107.163501 C52.4527211,104.403472 52.3797064,101.667164 52.14182,98.9344156 C52.8625453,91.8463481 53.0168181,84.8152129 52.569309,77.4970441 C52.0158108,68.4543021 51.037179,58.0783961 53.0945434,49.181543 C53.2146643,48.6632221 52.5127815,48.4959836 52.323179,48.968047 C49.0928696,56.9990551 49.788864,66.3525525 47.3793806,74.6824551 C44.590692,84.3217999 46.1357762,96.0249394 46.9259832,105.855244 C47.0307945,107.159942 47.0072414,108.397033 46.9118513,109.600913 C46.9000748,109.755105 46.8847652,109.909296 46.871811,110.063488 C46.5185143,113.762899 45.4751114,117.143253 45.0111151,120.996856 C44.3174759,126.761248 44.0430822,132.545804 44.0030419,138.349337 C43.9818441,141.434354 44.0737012,144.498022 44.207954,147.554573 C44.1584924,155.733843 44.491769,163.873971 44.9216133,172.014099 C44.9015931,172.582236 44.8992378,173.146814 44.8686188,173.717323 C44.3151206,184.458544 43.9806664,194.7194 45.8178092,205.350315 C46.1675729,207.373783 46.4148806,209.413856 46.5938843,211.463417 C46.6951627,215.411907 46.8046846,219.36277 46.943648,223.313632 C46.8435473,229.354383 46.4360784,235.405808 46.228811,241.351672 C45.8672708,251.687251 46.2182121,261.981317 48.7313293,272.050026 C50.3023219,278.345786 54.3652338,283.914474 58.3468876,289.251874 C62.1271622,295.846528 67.4383891,301.090228 74.9447661,302.870547 C83.0411486,304.790825 86.4775478,292.256237 78.3764547,290.334773" id="Fill-6" fill="#73732E"></path>
                    <path d="M69.4657238,293.872096 C53.9732188,289.821416 45.4986353,276.332188 41.7701042,261.623132 C37.4631926,244.635643 30.1786924,228.387875 26.9285748,211.152627 C23.204804,191.411339 27.5985918,171.041763 27.1868229,151.166519 C26.9952195,141.86904 25.9158139,132.67588 26.0978967,123.352321 C26.2050042,117.866061 26.4465911,112.376246 26.7072193,106.888801 C27.5688397,102.346159 28.3269228,97.714608 28.0508234,93.2798421 C27.8925423,90.7370532 24.4829536,90.857969 24.174722,93.2798421 C23.217895,100.771882 21.362555,108.231915 19.3298927,115.504646 C18.1529002,119.717733 17.2662882,123.176875 17.9791481,126.926451 C17.2758088,145.07568 18.0446027,163.227281 16.6105522,181.357543 C15.2681382,198.311839 16.1404693,215.92406 19.2168348,232.686314 C20.71991,240.876583 25.1910531,248.461088 28.8600801,255.829842 C32.8968428,263.935944 36.4254399,272.15585 40.8358888,280.092433 C47.0171817,291.214319 53.8875328,306.834985 69.4657238,300.689616 C72.5313785,299.480457 73.1442714,294.833496 69.4657238,293.872096" id="Fill-7" fill="#73732E"></path>
                    <path d="M93.4813921,116.310187 C93.7974817,113.21363 94.0170554,110.104007 93.9989586,106.959938 C93.8903782,87.7795758 88.6374999,68.2773234 80.343164,51.0092957 C80.1766741,50.6624623 79.9703713,50.386896 79.7471783,50.1445878 C77.7167248,43.6865972 75.6585231,37.2844326 72.8245747,31.031929 C72.8233683,31.0248023 72.8221618,31.0188634 72.8209554,31.0117366 C72.8631811,30.6708422 72.8848972,30.3299477 72.9428067,29.9878654 C73.1418708,28.8060187 71.4878294,28.3142755 71.0981464,29.4878077 C67.5053417,40.2764646 70.0183747,49.4307286 73.9501915,59.768027 C75.943245,65.0097251 77.8494342,70.2169773 79.2368504,75.6534722 C80.9222595,82.2575604 81.0018851,89.1075202 81.2214588,95.8838373 C82.0695923,121.901094 77.7191377,147.653474 79.7037461,173.71943 C80.0029454,177.658128 80.2997319,181.57782 80.5193055,185.492762 C79.7688944,196.502347 79.1572248,207.528561 78.3911298,218.540522 C76.3124184,227.049818 73.2721673,235.430833 71.6977515,244.007834 C69.5201113,255.870249 70.1185099,267.471351 69.9677038,279.432353 C68.4367202,284.007703 66.5474213,288.459523 64.4240713,292.617961 C63.2224483,294.972152 64.761877,297.150551 66.6982274,297.788392 C66.9672655,298.123347 67.2918003,298.40604 67.6416704,298.637659 C67.8117797,300.001236 68.1544112,301.344622 68.7564292,302.659501 C72.2563373,310.302901 83.6500403,303.677433 80.1742612,296.088671 C81.2311104,298.39535 80.9114014,294.927016 81.087543,293.924525 C81.4060455,292.126218 81.8077929,290.339788 82.1733469,288.549795 C83.0721513,284.144298 83.2277832,279.72336 83.1650479,275.239469 C83.1288544,272.724927 83.1204093,270.249582 83.138506,267.78849 C84.1084909,260.556063 84.7249863,253.187041 86.3174988,246.1019 C87.5251541,240.733109 87.9968756,235.252666 88.1525075,229.747279 C89.8367101,222.622941 91.4364613,215.491476 92.0107309,208.171153 C92.905916,196.762472 91.8249378,185.145928 91.7211832,173.71943 C91.6306995,163.6672 92.0988017,153.613783 92.2894206,143.560365 C93.3004247,134.504687 93.7612882,125.407437 93.4813921,116.310187" id="Fill-8" fill="#73732E"></path>
                    <path d="M45.2444935,33.0643286 C39.9934251,38.0124086 35.5111529,42.2284825 32.6839283,48.9490966 C30.7987165,53.427942 29.1757021,57.7929978 28.2206388,62.5780188 C27.4637067,66.3682622 28.8506246,69.8100988 29.4319675,73.5018029 C29.4378996,73.5428609 29.5031523,73.5405147 29.5126437,73.5018029 C30.301609,70.1186206 32.4015618,67.2562889 33.7279727,64.0795699 C35.2786158,60.3690964 36.8221404,56.361832 37.4912779,52.4038372 C38.6812512,45.3641434 43.0484412,40.113407 46.839034,34.2808196 C47.4785111,33.2954267 46.0607464,32.2947837 45.2444935,33.0643286" id="Fill-9" fill="#73732E"></path>
                    <path d="M128.260045,175.627194 C132.145707,162.043515 128.289917,149.018314 128.427325,135.271006 C128.526498,125.409322 127.872913,115.437365 126.2742,105.65631 C125.507104,98.0783347 124.262067,90.5774313 122.343133,83.2188151 C120.65839,76.7625364 117.494419,70.5469601 114.964916,64.387113 C112.711423,58.9007582 110.879713,53.1974157 108.084952,47.9458347 C103.353334,39.0588175 99.6564584,31.0267088 91.2650055,24.9617198 C90.5899136,24.4732006 89.7116966,25.6020119 90.3712555,26.1106884 C91.415557,26.9157964 92.3535167,27.8288055 93.2090314,28.8188868 C93.05848,29.108204 93.050116,29.4781505 93.3165682,29.7971109 C95.6238294,32.5634099 97.3253002,35.545511 98.6444179,38.662785 C100.430723,43.5882913 101.496532,48.888487 102.589823,53.451161 C102.666293,53.7677499 102.743959,54.0831531 102.820429,54.3997419 C103.26133,56.9099241 103.668775,59.4307778 104.125209,61.9326599 C106.211422,73.3678025 109.259492,84.5788429 111.749566,95.9309847 C112.306368,98.4660671 112.801037,100.999964 113.26225,103.533861 C114.238445,113.714505 114.068776,124.090794 113.915835,134.219267 C113.694787,148.804883 112.674382,163.3739 111.520154,177.912088 C110.454345,191.343993 110.025393,204.831628 106.915191,217.97303 C105.502874,223.938418 104.948463,229.774562 104.474106,235.860894 C103.983021,242.167772 101.301771,248.088102 98.7842157,253.800931 C94.2688661,264.044418 91.6867887,274.880769 82.7743799,282.323572 C78.2172104,286.128567 73.5764012,289.602745 70.4757575,294.136961 C69.9942318,294.402564 69.5377979,294.685953 69.0431287,294.938512 C65.5051689,296.745559 65.3773196,300.41301 67.0059043,303.079708 C66.9736433,303.313296 66.9282389,303.536212 66.9031469,303.774543 C66.1539741,310.916172 78.3438648,312.544173 79.5363281,305.471317 C79.7621553,304.138561 80.2377069,302.898292 80.8661996,301.714937 C85.8260345,298.094915 89.9889025,293.861873 93.5256675,289.165212 C94.7049874,288.143116 95.8042522,287.115091 96.7350428,286.058609 C100.758113,281.491192 103.030723,275.626591 105.304529,270.082136 C107.89258,263.771701 110.602507,257.532411 113.245522,251.246876 C115.312618,246.32967 116.23146,241.126704 116.796625,235.860894 C116.951956,234.42498 117.1276,233.028195 117.308022,231.632595 C118.516019,226.893248 119.339273,222.113586 120.192398,217.20468 C120.46124,215.659679 120.719328,214.115863 120.975026,212.572048 C121.79589,208.81211 122.393317,204.970358 122.85453,201.089476 C124.278795,192.53802 125.856001,184.032806 128.260045,175.627194" id="Fill-10" fill="#73732E"></path>
                </g>
            </g>
        </g>
    </g>
</svg>