<?xml version="1.0" encoding="UTF-8" standalone="no"?>
<svg width="37px" height="37px" viewBox="0 0 37 37" version="1.1" xmlns="http://www.w3.org/2000/svg" xmlns:xlink="http://www.w3.org/1999/xlink" xmlns:sketch="http://www.bohemiancoding.com/sketch/ns">
    <!-- Generator: Sketch 3.0.1 (7597) - http://www.bohemiancoding.com/sketch -->
    <title>icon-google</title>
    <description>Created with Sketch.</description>
    <defs></defs>
    <g id="Page-1" stroke="none" stroke-width="1" fill="none" fill-rule="evenodd" sketch:type="MSPage">
        <g id="Selections" sketch:type="MSArtboardGroup" transform="translate(-169.000000, -915.000000)" fill="#802E13" opacity="0.4">
            <g id="share" sketch:type="MSLayerGroup" transform="translate(51.000000, 896.000000)">
                <path d="M138.0615,29.038 C138.0615,25.639 136.031,20.349 132.1115,20.349 C130.884,20.349 129.5625,20.9635 128.8055,21.9075 C128.0025,22.8995 127.7665,24.1745 127.7665,25.4025 C127.7665,28.567 129.6085,33.8085 133.67,33.8085 C134.85,33.8085 136.125,33.2405 136.883,32.487 C137.9675,31.3995 138.0615,29.8885 138.0615,29.038 Z M142.849,19.897 L141.792,20.4915 L138.8645,20.4915 C139.95,21.389 142.217,23.278 142.217,26.8665 C142.217,30.361 140.2335,32.014 138.2505,33.5725 C137.6375,34.185 136.928,34.847 136.928,35.8845 C136.928,36.925 137.6375,37.4905 138.155,37.9165 L139.856,39.238 C141.9345,40.9865 143.8225,42.5925 143.8225,45.8505 C143.8225,49.8455 140.333,53.866 133.7185,54.6345 C134.819,54.844 135.953,54.9585 137.114,54.9585 C147.0555,54.9585 155.114,46.8995 155.114,36.9585 C155.114,29.023 149.9775,22.2925 142.849,19.897 Z M135.511,41.458 C135.1335,41.4115 134.8975,41.4115 134.426,41.4115 C134.0015,41.4115 131.45,41.505 129.467,42.1685 C128.427,42.5445 125.406,43.676 125.406,47.0315 C125.406,50.382 128.6635,52.7905 133.717,52.7905 C138.2505,52.7905 140.659,50.6195 140.659,47.6925 C140.659,45.2825 139.1015,44.009 135.511,41.458 Z M124.8865,42.261 C127.8135,40.4655 131.7805,40.2305 133.9055,40.0885 C133.2445,39.238 132.489,38.342 132.489,36.878 C132.489,36.0755 132.7255,35.6025 132.962,35.0375 C132.4415,35.083 131.923,35.131 131.45,35.131 C126.4445,35.131 123.6115,31.3995 123.6115,27.7175 C123.6115,26.537 123.9145,25.2905 124.507,24.1155 C121.1795,27.382 119.1145,31.928 119.1145,36.9585 C119.1145,40.288 120.022,43.4045 121.5975,46.0795 C122.0655,44.757 123.0565,43.3465 124.8865,42.261 Z" id="icon-google" sketch:type="MSShapeGroup"></path>
            </g>
        </g>
    </g>
</svg>