<?xml version="1.0" encoding="UTF-8" standalone="no"?>
<svg width="37px" height="37px" viewBox="0 0 37 37" version="1.1" xmlns="http://www.w3.org/2000/svg" xmlns:xlink="http://www.w3.org/1999/xlink" xmlns:sketch="http://www.bohemiancoding.com/sketch/ns">
    <!-- Generator: Sketch 3.0.1 (7597) - http://www.bohemiancoding.com/sketch -->
    <title>icon-twitter</title>
    <description>Created with Sketch.</description>
    <defs></defs>
    <g id="Page-1" stroke="none" stroke-width="1" fill="none" fill-rule="evenodd" sketch:type="MSPage">
        <g id="Selections" sketch:type="MSArtboardGroup" transform="translate(-51.000000, -915.000000)" fill="#802E13" opacity="0.4">
            <g id="share" sketch:type="MSLayerGroup" transform="translate(51.000000, 896.000000)">
                <path d="M18.0415,19.024 C8.1005,19.024 0.0415,27.0825 0.0415,37.024 C0.0415,46.965 8.1005,55.024 18.0415,55.024 C27.9825,55.024 36.0415,46.965 36.0415,37.024 C36.0415,27.0825 27.9825,19.024 18.0415,19.024 Z M26.8671875,34.25 L26.8671875,34.7809231 C26.8671875,36.2252692 26.5935313,37.6624231 26.046875,39.0923846 C25.4995625,40.523 24.7271563,41.8306923 23.7296563,43.0154615 C22.7308437,44.2008846 21.4393437,45.1607308 19.8538437,45.8969615 C18.2676875,46.6325385 16.5174687,47 14.6038437,47 C12.2249375,47 10.0232187,46.3598846 8,45.079 C8.328125,45.1064615 8.67003125,45.1201923 9.02571875,45.1201923 C11.021375,45.1201923 12.8122812,44.5068846 14.3984375,43.2809231 C13.4409687,43.2809231 12.6003125,43.0023846 11.8758125,42.4433462 C11.1513125,41.8856154 10.6387813,41.1703077 10.3382187,40.2980769 C10.6112187,40.353 10.884875,40.3798077 11.1585312,40.3798077 C11.541125,40.3798077 11.9237187,40.3386154 12.3063125,40.2568846 C11.2950313,40.0391538 10.4675,39.5356923 9.82503125,38.7451923 C9.1825625,37.9553462 8.861,37.0563077 8.861,36.0480769 L8.861,35.9663462 C9.46278125,36.3207308 10.10525,36.4972692 10.7890625,36.4972692 C9.50346875,35.6531538 8.861,34.4683846 8.861,32.9423077 C8.861,32.1799231 9.06640625,31.4574231 9.4765625,30.7761154 C10.5429688,32.1112692 11.84825,33.1737692 13.3937187,33.9636154 C14.937875,34.7541154 16.5857187,35.1895769 18.3359375,35.2713077 C18.2539062,34.9443846 18.2132188,34.6174615 18.2132188,34.2905385 C18.2132188,33.0920385 18.6365,32.0779231 19.484375,31.2462308 C20.3315937,30.4158462 21.3435313,30 22.5195312,30 C23.7769062,30 24.8301875,30.4498462 25.6780625,31.3482308 C26.6624375,31.1579615 27.5779063,30.8173077 28.4257812,30.3269231 C28.0976562,31.3351538 27.4683125,32.125 26.5390625,32.6971154 C27.3862812,32.5885769 28.2065937,32.3564615 29,32.0020769 C28.4257812,32.8743077 27.7144062,33.6236154 26.8671875,34.25 Z" id="icon-twitter" sketch:type="MSShapeGroup"></path>
            </g>
        </g>
    </g>
</svg>