<?xml version="1.0" encoding="UTF-8" standalone="no"?>
<svg width="165px" height="312px" viewBox="0 0 165 312" version="1.1" xmlns="http://www.w3.org/2000/svg" xmlns:xlink="http://www.w3.org/1999/xlink" xmlns:sketch="http://www.bohemiancoding.com/sketch/ns">
    <!-- Generator: Sketch 3.0.1 (7597) - http://www.bohemiancoding.com/sketch -->
    <title>Imported Layers</title>
    <description>Created with Sketch.</description>
    <defs></defs>
    <g id="Page-1" stroke="none" stroke-width="1" fill="none" fill-rule="evenodd" sketch:type="MSPage">
        <g id="Profile-(Trinitario)" sketch:type="MSArtboardGroup" transform="translate(-427.000000, -574.000000)">
            <g id="status" sketch:type="MSLayerGroup" transform="translate(48.000000, 547.000000)">
                <g id="Imported-Layers" transform="translate(379.000000, 28.000000)" sketch:type="MSShapeGroup">
                    <path d="M63.393336,13.821204 C65.4383725,16.1105912 68.2782995,17.5416077 70.548555,19.612218 C72.8176061,21.6828282 74.5422776,24.9298129 73.3619857,27.7559808 C71.5542119,32.0848952 65.3998324,31.6102807 60.80392,32.6862329 C60.2595404,32.8141517 59.7079346,32.974349 59.1527156,32.9133784 C56.6451974,32.6360218 56.7728616,29.0638605 56.7295039,26.5592828 C56.5994309,19.0610913 48.6830441,14.0878011 46.1418032,7.025968 C45.5877886,5.48735632 45.3095769,3.74311822 45.9659638,2.24515363 C47.118555,-0.384951794 50.8075696,-1.11899031 53.4331171,0.0800986653 C56.0586645,1.27918764 57.7797229,3.8268034 59.0912922,6.38278767 C60.4016572,8.93877194 61.4759638,11.6752771 63.393336,13.821204" id="Fill-1" fill="#A87E21"></path>
                    <path d="M66.74392,24.4193334 C53.5306718,26.4887482 44.4315842,24.4695445 32.9261463,32.7878506 C24.0739565,39.1873754 17.3210003,48.5218586 14.3750879,59.0183703 C13.8066207,61.044747 13.3718397,63.1057932 12.8081901,65.1333654 C8.66391998,80.0436722 2.31563531,89.4331485 5.70596377,105.727847 C6.19975939,108.098529 6.83687618,110.46921 6.81640173,112.888907 C6.7357083,122.296316 0.352496621,129.733537 0.466912679,139.395588 C0.604211949,150.983593 3.21289808,162.008517 5.67464991,173.277323 C7.02355501,179.454484 8.34837253,185.804993 9.41183969,191.966613 C10.463263,198.051721 9.55877399,206.141686 12.078336,211.817932 C12.8298689,213.511959 13.9848689,214.996773 14.8472046,216.638197 C18.9312557,224.398204 18.6819492,234.944927 21.6170222,243.345723 C25.3518032,254.03471 29.0974236,264.58741 33.4416207,275.062403 C35.1277521,279.129502 36.8355623,283.234858 39.3876426,286.829734 C44.0979711,293.462381 51.294139,297.852267 58.2867667,302.058044 C63.8618397,305.410233 70.20892,308.896318 76.5463652,307.381617 C79.4669857,306.684639 82.0226791,304.978657 84.5085185,303.306149 C94.8517302,296.341151 105.196146,289.376154 115.539358,282.411157 C117.454321,281.122405 119.418665,279.783442 120.700124,277.871834 C121.908117,276.067821 122.409139,273.902766 122.963154,271.808245 C129.711292,246.33687 147.552971,224.446024 151.942935,198.472538 C153.237643,190.809367 153.336402,182.884381 155.860781,175.52965 C157.391548,171.074012 159.78465,166.919641 160.964942,162.359994 C164.553993,148.492166 156.399139,134.423493 155.535599,120.131261 C155.097205,112.868583 156.550891,105.470814 155.000854,98.3587699 C153.125635,89.7583252 147.06038,82.5482498 144.892497,74.0147532 C144.091584,70.8610177 143.83746,67.5733859 142.799285,64.4889896 C141.640672,61.0483335 139.554686,58.0021932 137.495197,55.006264 C132.168227,47.261799 126.759358,39.4216938 119.61257,33.2887662 C109.357278,24.487477 91.5312557,18.8494874 78.068701,21.6505497 C74.2628616,22.4419723 70.5858908,23.8179956 66.74392,24.4193334" id="Fill-2" fill="#C99628"></path>
                    <path d="M103.171584,157.992824 C102.956,157.346057 102.710307,156.698095 102.434504,156.062087 C102.426073,155.012436 101.873263,154.156457 100.968774,153.483389 C100.375015,152.840208 99.5993944,152.406241 98.75392,152.21257 C99.57892,149.892099 99.5524236,147.462838 97.3556353,145.524929 C94.6915477,143.175766 91.278336,144.946306 90.8664382,148.19329 C90.7869492,148.826907 90.7255258,149.507147 90.6857813,150.210103 C90.5436645,150.431271 90.4003433,150.651243 90.2702703,150.877193 C89.2549784,152.64295 88.749139,155.561172 90.0872046,157.32932 C90.2293214,157.515818 90.373847,157.687971 90.5195769,157.856537 C90.5364382,157.968914 90.5376426,158.081291 90.5677521,158.193668 C90.6701244,158.563079 90.8242849,158.884669 91.0097594,159.179958 C91.1314017,159.702393 91.3421682,160.222436 91.6649419,160.725743 C92.5236645,162.064705 93.80392,162.569207 95.1708908,162.425747 C95.9742119,162.831022 96.8064382,163.187282 97.6037375,163.519632 C99.0381536,164.118579 100.978409,163.385736 102.006949,162.364777 C103.105343,161.275674 103.671402,159.49318 103.171584,157.992824" id="Fill-3" fill="#A87E21"></path>
                    <path d="M96.8220952,205.100403 C96.669139,204.136828 96.2849419,203.212705 95.6622776,202.487035 C95.4924601,201.830704 95.3154163,201.176764 95.1492119,200.522824 C95.0082995,199.962134 94.8950879,199.393074 94.7493579,198.833579 C94.6072411,198.292017 94.3820222,197.922606 94.1327156,197.489834 C93.7726061,196.593208 93.1126061,195.929704 92.3333725,195.489759 C92.2418397,193.692919 91.2397959,192.057471 89.3176061,191.036512 C86.7113287,189.650925 84.1761098,191.001843 83.1367302,193.532721 C82.6778616,194.64693 82.7260368,195.53997 83.0247229,196.336175 C82.6802703,197.155094 82.5080441,198.045743 82.3851974,198.922046 C82.0660368,201.209043 82.1864747,203.456587 82.9729346,205.65153 C83.0451974,205.851179 83.1319127,206.041264 83.2222411,206.227762 C83.3691755,207.272631 83.5414017,208.312718 83.7666207,209.348023 C84.548263,212.939313 88.6551974,216.1325 92.4923506,214.823425 C95.019139,213.961467 96.0801974,212.116807 96.4077886,209.987617 C96.9618032,209.254774 97.2966207,208.367711 97.2556718,207.38979 C97.2195404,206.560112 97.0858543,205.823682 96.8220952,205.100403" id="Fill-4" fill="#A87E21"></path>
                    <path d="M162.732971,145.264309 C163.343592,138.200085 161.864613,130.177068 160.857752,123.938936 C160.179686,119.740332 159.178847,115.678014 157.767314,111.761548 C157.821511,111.453108 157.874504,111.145864 157.907022,110.844598 C158.524869,105.279534 156.858008,100.370801 154.521511,95.3712093 C154.436,95.1871019 154.323993,95.0328821 154.226438,94.8619252 C153.848263,91.9162071 153.176219,89.0338507 152.073008,86.250721 C150.7783,82.9893902 148.747716,80.1763729 147.833592,76.7620179 C145.697022,68.7820389 143.871183,62.5020645 139.004285,55.5932557 C134.915416,49.7890912 131.527497,42.5072857 125.805489,38.1269647 C125.800672,38.1221827 125.795854,38.1162051 125.791037,38.1102276 C124.829942,36.9972148 122.774066,38.1735893 123.284723,39.5579811 C125.700708,46.1105301 127.563883,51.9971843 131.650343,57.7786342 C131.867132,58.0858783 132.077898,58.3931225 132.292278,58.6991711 C132.041767,59.7643638 131.740672,60.8594441 131.778008,61.5360985 C131.867132,63.1285078 133.60746,65.9857586 134.821475,68.3504625 C134.405964,71.963271 133.84954,75.5533649 133.742351,79.2056249 C133.593008,84.2900969 135.317679,89.0051586 137.178446,93.6640318 C139.410161,99.2470283 140.266475,105.38952 141.970672,111.159015 C142.678847,113.555997 143.470124,115.970912 144.193956,118.406151 C144.067497,118.947713 143.950672,119.490472 143.853117,120.034425 C143.661621,121.106791 143.580927,122.154051 143.552022,123.189356 C144.935854,127.523053 146.042679,131.957171 146.706292,136.446283 C147.51684,141.932444 148.944029,150.138373 147.059175,156.441062 C147.958847,158.772292 148.909102,161.089175 149.484796,163.463443 C150.710854,168.518028 147.733628,174.379576 145.558519,179.024103 C145.02257,179.743796 144.476986,180.433601 143.910927,181.055262 C140.920453,184.338112 140.866256,188.285661 141.148081,192.350369 C140.843373,193.856702 140.584431,195.383359 140.371256,196.941099 C140.02319,199.475564 139.744978,201.994488 139.47881,204.500261 C138.905526,206.18831 138.272022,207.854841 137.667424,209.490288 C134.26746,218.674138 133.683336,228.441393 131.264942,237.888254 C129.287351,241.747336 127.094175,245.496432 125.091292,249.341167 C125.010599,249.495387 124.93954,249.653194 124.861256,249.808609 C123.546073,251.283859 122.546438,253.036466 121.428774,254.676695 C119.91246,256.90033 117.756621,258.740208 117.862606,261.699076 C117.871037,261.920244 117.86381,262.111525 117.860197,262.311174 C115.36111,263.602316 113.413628,265.684882 113.413628,268.732217 C113.414832,268.789602 113.418446,268.827858 113.420854,268.881655 C113.259467,269.004792 113.104102,269.135102 112.941511,269.254652 C111.631146,270.270829 110.580927,271.463941 109.882387,272.970274 C108.793628,275.313459 108.115562,277.79054 108.148081,280.320223 C106.441475,281.759608 104.645745,283.122481 102.803044,284.46503 C103.348628,283.588727 103.864102,282.695686 104.324175,281.773954 C107.026803,276.347568 108.075818,270.274416 109.570453,264.459492 C111.308373,257.692948 115.795891,253.899618 119.759504,248.419435 C123.554504,243.171179 123.632789,236.470388 123.188373,230.330287 C122.674102,223.21107 126.035526,217.907821 127.197752,211.104217 C128.16246,205.454272 126.737679,199.788786 126.140307,194.178293 C125.409248,187.300567 128.075745,180.560324 129.671548,173.981474 C132.6283,161.78974 130.299029,150.648852 124.135015,139.906067 C122.731913,137.458874 121.14454,135.039177 119.861876,132.517862 C121.102387,128.038314 122.82465,123.868402 122.939066,118.917826 C123.076365,112.965419 122.352533,106.989102 122.498263,100.992462 C122.634358,95.3927283 121.897278,89.7882128 120.733847,84.32118 C118.309431,72.9304325 113.709905,63.6138818 106.956949,54.285376 C104.020672,50.2278406 101.32527,46.034018 100.011292,41.187451 C98.9899784,37.4156407 97.9626426,34.1351819 95.2696499,31.1954414 C92.6561463,28.3429725 88.2360733,27.2682158 84.513336,27.5491588 C82.5706718,27.6962056 80.7123141,28.5928325 79.058701,29.5587985 C78.2650149,30.0226534 75.3154893,33.0819443 74.3363287,32.484193 C71.0592119,30.4817264 67.048628,35.4155651 70.1571317,37.8603676 C73.5318032,40.5131876 76.5764747,40.0971527 79.978847,38.2082588 C80.7604893,41.3070012 82.0576061,44.2335913 83.5004528,47.0968197 C82.1924966,48.3999174 81.5601974,50.3509774 81.1555258,52.3235565 C80.4714382,55.6578128 82.4177156,58.0512088 84.9710003,59.9233656 C85.1793579,60.0213968 85.3997594,60.0871495 85.6117302,60.1756167 C85.6045039,60.3178815 85.5972776,60.4601462 85.5876426,60.6322986 C85.4647959,62.9790699 86.1910368,64.9110019 87.4761098,66.8501069 C88.9346134,69.048636 91.1940295,70.7594 93.7027521,71.489852 C93.8280076,71.8114422 93.9376061,72.1306413 94.0688835,72.4522315 C96.3367302,78.018491 97.9493944,82.5016252 98.849066,88.4026254 C99.4645039,92.4446192 101.621548,95.7705071 104.914321,97.9439306 C106.230708,106.600564 102.968044,114.930825 104.66381,123.403351 C104.467497,125.898365 104.524102,128.420875 105.063665,130.993596 C105.205781,131.676228 105.385234,132.339732 105.577935,132.996063 C105.527351,133.091703 105.479175,133.172997 105.427387,133.277006 C104.300088,135.555634 104.359102,138.148679 104.630088,140.605436 C105.15038,145.32528 107.965015,149.135346 110.823008,152.763696 C111.131329,153.154625 111.479394,153.43796 111.841913,153.672278 C111.507095,156.909699 112.598263,159.924756 113.450964,163.249448 C112.618737,166.71521 111.248154,170.136738 110.237679,173.252217 C105.085343,189.126099 104.96611,206.743024 104.106183,223.26965 C103.682241,231.413412 102.170745,239.310902 101.334905,247.391303 C101.185562,248.836665 100.935051,250.271268 100.611073,251.696307 C98.6358908,255.125008 97.4724601,258.882473 96.4836645,262.767856 C94.1832995,267.261749 91.2951974,271.495024 88.2348689,275.301504 C85.363628,278.87486 82.2069492,282.222267 79.3031901,285.77291 C77.418336,288.076643 74.5193944,292.520326 71.1856718,292.77975 C70.9146864,292.800073 70.6063652,292.713997 70.2751609,292.556191 C70.6593579,290.596762 70.0716207,288.422143 67.9880441,286.973194 C63.8931536,284.123116 60.4221317,280.078731 57.50392,275.79166 C57.2678616,275.330196 57.0305988,274.868732 56.7873141,274.404877 C54.8892119,270.788482 53.1296134,267.380104 52.0565112,263.40984 C51.7180806,262.158149 51.6422046,260.954278 51.7301244,259.775513 C51.8312922,259.517284 51.9432995,259.259056 52.0769857,258.997241 C53.6812192,255.869806 55.2396864,252.493707 54.7121682,248.93111 C55.6503798,243.491574 53.5511463,238.619901 49.7477156,234.403364 C48.8227521,233.376428 47.9014017,232.457086 47.0559273,231.495902 C46.8030076,228.593222 46.9619857,225.530345 46.8186645,223.087933 C46.3116207,214.476729 43.0923141,208.443028 38.5554163,202.091323 C37.0138105,197.711002 35.178336,193.417953 33.3392484,189.148814 C33.0369492,188.444663 32.5588105,187.548036 32.1155988,186.58207 C32.3396134,185.958018 32.6395039,185.324401 33.0393579,184.677635 C35.5396499,180.623686 38.1748324,177.276279 39.9344309,172.781189 C43.7679711,162.987633 41.6410368,151.482118 40.8148324,141.378926 C40.3475331,135.672793 42.3564382,131.802951 44.1618032,126.572628 C45.5480441,122.554544 44.3797959,118.51016 42.6298324,114.829207 C39.4779711,108.200146 38.0760733,101.520874 37.3763287,94.6144562 C37.3943944,94.3167761 37.4064382,94.0226825 37.4293214,93.7214159 C38.1760368,83.7437523 39.9609273,73.8784659 41.5230076,64.0095931 C42.9766937,54.8245476 44.173847,46.4572259 51.3266572,39.7205695 C52.2203068,38.8789357 50.9268032,37.6989748 50.009066,38.4138853 C46.6368032,41.0356222 44.1955258,44.0303558 42.3058543,47.499704 C41.1990295,46.2169299 39.1551974,45.9730474 37.8062922,47.268972 C36.8608543,48.1751629 36.288774,49.1255874 35.8359273,50.3569549 C35.4300514,51.4592082 35.4685915,52.9978198 34.5026791,53.7330539 C32.5106353,55.251342 30.0850149,56.6429069 29.349139,59.2263877 C28.2423141,63.1165527 29.9513287,68.4747948 33.8535185,70.4138998 C33.0104528,72.688941 32.1180076,74.9580047 31.1207813,77.2163088 C27.8183725,84.7001543 25.7576791,91.9078386 24.9073871,100.051601 C23.993263,108.821808 28.6554163,117.507133 29.4334455,126.190067 C30.218701,134.957882 29.9465112,144.188357 29.6418032,152.978887 C29.488847,157.413005 30.6149419,162.461612 30.1283725,166.943551 C29.6261463,169.004597 28.8950879,171.023801 27.8785915,172.993989 C27.5112557,173.474581 27.1101974,173.943218 26.6284455,174.380772 C23.8101974,176.947516 22.4998324,179.94464 22.1505623,183.164128 C19.9718397,189.257604 20.8763287,195.309238 24.8001974,201.929931 C26.2093214,204.30659 27.9074966,206.497946 29.5719492,208.712016 C29.8754528,209.508221 30.1560733,210.287688 30.3993579,211.040855 C32.5118397,217.576667 32.7322411,224.56677 35.4457083,230.934016 C35.6046864,231.307013 35.7889565,231.648926 35.9611828,232.002795 C36.3598324,235.981427 37.2077156,239.856051 39.1142484,243.421039 C40.0199419,245.113871 41.4218397,246.61064 42.5443214,248.163598 C44.4026791,250.732732 43.0802703,252.349052 41.8349419,254.85602 C38.0050149,262.570598 41.5880441,270.387988 45.573336,277.269301 C48.194066,281.790691 51.4446864,286.276216 55.2493214,290.119757 C55.9165477,292.331436 56.7644309,294.705704 57.9073871,296.900647 C56.6391755,299.356209 56.9607448,302.631885 60.0475696,304.715646 C69.5465112,311.131908 81.5072046,312.174386 91.6842119,306.553133 C96.0946499,304.116699 99.1176426,299.640738 102.468227,296.038689 C106.696803,291.493389 113.821913,288.79514 118.767095,284.959968 C124.08684,280.834289 128.635781,276.936951 131.225197,270.611547 C133.724285,264.507312 135.167132,258.169953 138.410526,252.372962 C145.271876,240.110693 150.15684,228.036118 151.839358,214.034393 C152.642679,207.351534 152.83538,200.625637 154.012059,193.987012 C154.991219,188.454227 157.479467,183.217926 159.177643,177.851315 C162.147643,171.769794 164.043336,164.880114 164.53111,158.814134 C164.928555,153.8791 164.097533,149.483237 162.732971,145.264309" id="Fill-5" fill="#A87E21"></path>
                    <path d="M91.9937375,286.925374 C92.5597959,286.353924 93.0451609,285.656946 93.378774,284.796184 C95.4671682,279.40925 91.5228251,276.219649 88.6274966,272.392846 C88.2842484,271.939751 88.7985185,271.008454 88.9382265,270.482433 C89.3296499,269.014356 89.1309273,267.653874 88.7611828,266.219271 C88.3950514,264.799014 86.9654528,264.109209 85.9585915,263.297463 C86.3006353,260.820382 86.6414747,258.344497 86.9076426,255.872197 C87.4953798,250.411142 87.1991025,245.352971 85.0504893,240.256544 C82.7200149,234.728541 80.6496864,230.718826 80.6171682,224.572747 C80.588263,219.279062 79.9547594,214.162312 77.6724601,209.308572 C75.0565477,203.744703 73.2295039,197.290186 74.3254893,191.133348 C74.594066,189.629406 72.6851244,188.062102 71.4711098,189.483554 C66.328409,195.508887 67.518336,203.072831 68.3626061,210.42278 C68.0615112,212.962027 67.9157813,215.504861 68.0193579,217.999875 C68.0711463,219.26113 68.2421682,220.500866 68.4372776,221.738211 C68.0326061,225.080836 67.5315842,228.405528 68.0253798,231.841402 C66.8824236,234.056668 65.2312192,236.295845 64.7699419,238.515893 C63.4740295,244.768371 67.5231536,247.910151 69.4682265,253.15482 C71.3410368,258.207014 69.6669492,265.09789 68.7901609,270.197903 C67.2533725,279.145044 65.2312192,287.698864 68.498701,296.571883 C70.9616572,303.258329 78.563701,307.883728 84.7578251,305.638574 C88.0915477,308.005669 93.7497229,307.507144 95.3033725,302.410717 C97.183409,296.239534 95.4009273,291.336778 91.9937375,286.925374" id="Fill-6" fill="#A87E21"></path>
                    <path d="M60.9195404,180.71813 C60.8087375,180.076146 60.6184455,179.453289 60.239066,178.872275 C60.1812557,178.782612 60.1065842,178.707295 60.0427521,178.622415 C59.9512192,178.488518 59.848847,178.365382 59.7428616,178.242245 C59.7272046,178.224312 59.7115477,178.20638 59.6946864,178.189643 C59.4116572,177.871639 59.0949054,177.583523 58.7227521,177.367137 C58.1446499,177.031201 57.5340295,176.866221 56.9258178,176.824379 C56.8138105,176.813619 56.7018032,176.819597 56.5885915,176.817206 C56.4753798,176.819597 56.3633725,176.813619 56.2513652,176.824379 C55.6431536,176.866221 55.0325331,177.031201 54.4544309,177.367137 C54.083482,177.583523 53.7667302,177.871639 53.4824966,178.189643 C53.4656353,178.20638 53.4511828,178.224312 53.4343214,178.242245 C53.328336,178.365382 53.2259638,178.488518 53.1344309,178.622415 C53.0705988,178.707295 52.9971317,178.782612 52.9381171,178.872275 C52.5599419,179.453289 52.3684455,180.076146 52.2576426,180.71813 C52.1167302,181.153293 52.0288105,181.607584 52.0577156,182.085785 C52.0661463,182.21729 52.0745769,182.3476 52.0830076,182.479106 C51.9950879,183.877843 52.7345769,185.13073 53.813701,185.955627 C54.5568032,186.567724 55.4950149,186.95148 56.5885915,186.95148 C57.6821682,186.95148 58.6203798,186.567724 59.363482,185.955627 C60.4426061,185.13073 61.1820952,183.877843 61.0941755,182.479106 C61.1026061,182.3476 61.1110368,182.21729 61.1194674,182.085785 C61.1495769,181.607584 61.0616572,181.153293 60.9195404,180.71813" id="Fill-7" fill="#A87E21"></path>
                    <path d="M97.7566937,251.542087 C98.4118762,249.492996 98.0746499,246.972877 97.1183725,245.300369 C96.1693214,243.642207 94.1062192,242.83883 92.2671317,243.340941 C91.138628,243.64938 90.3593944,244.316471 89.8475331,245.176037 C87.7976791,245.656629 86.0970952,247.589756 86.8931901,249.959242 C87.4688835,251.671202 88.0192849,253.16558 89.2778616,254.523671 C90.6990295,256.059891 92.8175331,256.479513 94.8252338,256.381481 C96.3150514,256.309751 97.6290295,255.42508 98.0373141,253.954611 C98.25892,253.153625 98.1336645,252.280908 97.7566937,251.542087" id="Fill-8" fill="#A87E21"></path>
                    <path d="M99.6162557,222.821336 C97.8385915,221.056775 95.5008908,221.060361 93.3450514,222.017959 C93.2751974,222.04426 93.213774,222.088493 93.1463287,222.118381 C92.8091025,222.219998 92.4742849,222.345526 92.1466937,222.521265 C92.0057813,222.596582 91.8769127,222.689831 91.7468397,222.779494 C89.2164382,223.9475 87.7169857,226.950602 89.3549419,229.552015 C89.5416207,229.8485 89.8920952,231.385916 90.1016572,232.112781 C90.4135915,233.188734 90.8146499,234.233603 91.2096864,235.280863 C92.0672046,237.551122 94.2085915,239.076583 96.7257448,238.390365 C99.0863287,237.744794 100.496657,235.255757 99.8571317,232.914964 C99.6752703,232.25146 99.4994309,231.58676 99.3175696,230.923256 C100.053446,230.008697 100.533993,228.855037 100.945891,227.818537 C101.604686,226.165157 100.813409,224.009666 99.6162557,222.821336" id="Fill-9" fill="#A87E21"></path>
                    <path d="M145.500708,190.797412 C138.122679,187.983199 135.002132,192.760427 134.284321,198.741526 C133.895307,199.139628 133.605051,199.634566 133.413555,200.190475 C133.372606,200.310025 133.359358,200.431966 133.32684,200.551516 C132.90892,201.041672 132.57892,201.603558 132.38381,202.307709 C132.086329,203.382466 132.212789,204.048361 132.39465,205.124313 C132.478956,205.620447 132.754759,206.062783 132.963117,206.519465 C133.343701,207.355121 134.101256,207.960045 134.919029,208.403576 C135.19965,209.544086 135.539285,210.590151 135.927095,211.478409 C137.943227,216.094244 145.292351,212.08692 142.857095,207.457934 C142.811329,207.369467 142.783628,207.319256 142.754723,207.267849 C142.743883,207.226007 142.722205,207.160254 142.681256,207.046681 C142.592132,206.801603 142.516256,206.552939 142.44038,206.303079 C143.187095,204.98683 143.447241,203.380075 142.948628,201.974164 C142.672825,201.195892 142.29465,200.516847 141.786402,199.933442 C141.886365,199.669235 141.976694,199.406225 142.056183,199.142019 C143.546,198.826406 144.956329,198.217895 146.373883,197.424082 C149.346292,195.756356 148.299686,191.864995 145.500708,190.797412" id="Fill-10" fill="#A87E21"></path>
                    <path d="M138.912752,196.173586 C134.691402,197.479075 131.39381,201.088297 131.527497,205.759125 C131.587716,207.879946 133.855562,213.822789 132.653592,215.354228 C129.747424,219.060285 126.896657,223.966628 130.183409,227.450322 C130.075015,228.583658 130.126803,229.749273 130.364066,230.899346 C129.172935,232.421221 128.061292,234.2874 127.461511,236.127279 C125.732022,237.387338 124.978081,239.786712 126.137898,242.1024 C126.314942,242.453878 126.478737,242.811333 126.642533,243.167593 C126.420927,244.256695 126.208956,245.348189 126.004212,246.438487 C125.538117,248.908396 126.768993,251.355589 125.457424,253.627044 C123.61111,256.825013 127.40611,261.031986 130.722971,258.853781 C136.426913,255.107076 133.751986,250.886952 134.810635,245.184405 C134.846767,244.993125 134.893737,244.805431 134.931073,244.615346 C136.326949,244.200507 137.796292,243.548958 138.633336,242.49572 C139.763044,241.071877 140.474832,239.558371 139.962971,237.711319 C139.634175,236.524186 138.951292,235.705266 138.055234,235.090778 C138.116657,235.035785 138.178081,234.981987 138.232278,234.931776 C139.316219,233.939509 139.638993,232.483387 139.375234,231.122905 C140.273701,229.175432 141.25527,227.255455 142.331986,225.358192 C143.170234,223.880551 142.964285,222.062192 142.061,220.754312 C142.411475,220.430331 142.725818,220.081245 142.978737,219.691511 C146.54611,214.204154 142.287424,208.787333 144.561292,203.466151 C146.134212,199.784004 143.566475,194.734201 138.912752,196.173586" id="Fill-11" fill="#A87E21"></path>
                    <path d="M54.2027156,254.187734 C54.0666207,254.001236 53.7679346,253.434568 53.6474966,253.255243 C53.6149784,253.107 53.5872776,252.958758 53.5559638,252.811711 C53.5752338,252.975495 53.5896864,253.101023 53.6017302,253.207422 C53.5981171,253.211009 53.5993214,253.225355 53.6053433,253.250461 C53.6619492,253.762136 53.6222046,253.489561 53.483701,252.404045 C53.4656353,252.363398 53.4475696,252.321555 53.4307083,252.279713 C53.7582995,251.172677 52.7851609,249.766766 51.4507083,249.857625 C48.8685185,248.432586 45.7551974,250.449398 45.0289565,253.267198 C44.2738105,256.192592 45.0518397,259.767144 47.8460003,261.317711 C49.3189565,262.134239 51.1158908,262.172495 52.5852338,261.317711 C54.1268397,260.421084 54.7350514,258.976917 54.9108908,257.292454 C55.0048324,256.403001 54.7519127,254.948074 54.2027156,254.187734" id="Fill-12" fill="#A87E21"></path>
                    <path d="M25.5613652,159.75619 C26.5200514,157.460825 25.1807813,155.530089 23.3970952,155.048301 C22.8575331,154.621507 22.238482,154.302308 21.5664382,154.115809 C21.1063652,153.968763 20.6222046,153.897033 20.1368397,153.914965 C17.678701,153.836062 15.1157813,155.166656 14.4666207,157.817085 C14.1823871,158.976723 14.1378251,159.997682 14.2859638,160.94452 C14.2799419,161.046137 14.2799419,161.14895 14.2727156,161.250568 C14.2510368,161.353381 14.2305623,161.454999 14.2064747,161.556617 C14.0185915,161.820823 13.8355258,162.089811 13.6572776,162.368363 C10.688482,167.000935 16.5923506,172.901935 21.2665477,169.922743 C23.0851609,168.763106 24.2124601,166.95431 24.818263,164.929129 C25.5481171,164.046848 25.9816937,162.946986 25.8769127,161.703664 C25.8178981,160.993535 25.7372046,160.368287 25.5613652,159.75619" id="Fill-13" fill="#A87E21"></path>
                    <path d="M19.5647594,129.03895 C17.8629711,127.955825 15.4855258,128.3611 14.093263,129.739514 C12.7467667,131.071304 11.5375696,132.899227 11.7097959,134.882566 C11.8181901,136.133061 12.3312557,137.075117 12.5745404,138.268229 C13.0912192,140.807476 16.0792849,142.237297 18.4603433,141.586944 C20.508993,141.027448 21.7386645,139.271255 21.8904163,137.36682 C21.9036645,137.34291 21.9217302,137.322586 21.9349784,137.298676 C23.6018397,134.204716 22.4396134,130.868069 19.5647594,129.03895" id="Fill-14" fill="#A87E21"></path>
                    <path d="M73.083774,296.215624 C72.119066,295.941854 71.1868762,295.911966 70.2582995,295.876101 C69.8596499,293.229259 67.7495769,290.992473 64.6073506,290.962586 C64.2508543,290.958999 63.9112192,290.941067 63.5703798,290.923134 C63.5800149,290.539378 63.5643579,290.144862 63.4993214,289.732414 C62.7345404,284.898997 58.82392,282.340622 54.603774,280.63464 C54.7314382,279.930489 54.6977156,279.168954 54.4363652,278.365576 C53.1801974,274.490953 50.8208178,270.717947 46.9029711,269.265412 C44.7808543,267.364563 41.403774,267.50085 39.6297229,269.699379 C37.4570222,270.911618 35.9130076,273.111343 35.7058543,275.907623 C35.5107448,278.531751 36.5007448,281.032742 38.0772776,283.147586 C38.2735915,283.729796 38.4891755,284.32157 38.7372776,284.943231 C40.1355623,288.436489 43.0176426,290.381572 44.7423141,293.611819 C46.5151609,296.932925 49.6610003,299.508037 53.2440295,300.927099 C54.5519857,302.668946 56.2995404,304.055729 58.1422411,304.559035 C63.2174966,305.947014 69.513993,309.956729 74.4459273,306.568675 C78.4131536,303.844125 78.0915842,297.635881 73.083774,296.215624" id="Fill-15" fill="#A87E21"></path>
                    <path d="M62.3876791,265.58685 C61.283263,262.880233 59.6513287,261.634519 57.0257813,260.55259 C55.8755988,260.079171 54.498993,259.635639 53.1428616,259.365456 C52.0095404,258.67326 50.4847959,258.636199 49.1720222,259.231559 C48.7854163,259.383388 48.8167302,259.39893 49.2647594,259.278184 C46.5958543,260.390001 44.2400879,263.641768 46.3043944,266.500214 C47.2751244,267.842764 48.4770952,268.813512 49.7802338,269.717311 C49.2430806,271.851283 48.7661463,274.11437 49.4719127,276.204108 C51.2110368,281.353137 57.1751244,281.611366 60.2462922,277.60165 C61.613263,275.816765 61.7878981,273.055154 62.3202338,270.885317 C62.7044309,269.318014 63.0235915,267.146981 62.3876791,265.58685" id="Fill-16" fill="#A87E21"></path>
                    <path d="M59.2574966,179.36004 C59.2635185,179.379168 59.2659273,179.398296 59.2719492,179.418619 C59.2731536,179.413837 59.2695404,179.399491 59.2574966,179.36004" id="Fill-17" fill="#A87E21"></path>
                    <path d="M60.6473506,181.992536 C60.4016572,181.15688 59.9524236,180.494571 59.3899784,179.994851 C59.3646864,179.807157 59.3273506,179.615877 59.2719492,179.418619 C59.2671317,179.437747 59.1298324,179.085074 59.0045769,178.75392 C59.6814382,174.820717 55.2216207,172.52057 52.1901974,175.072968 C51.1905623,175.914601 50.4354163,177.055111 49.7356718,178.145409 C49.41892,178.640347 49.1515477,179.167564 48.8468397,179.669675 C48.7155623,179.882474 48.578263,180.092883 48.4373506,180.299705 C48.3915842,180.366653 48.3747229,180.394149 48.3458178,180.440774 C48.2916207,180.495767 48.213336,180.580648 48.0953068,180.715739 C46.77892,182.213704 46.3610003,184.223344 47.4064017,186.011815 C48.8372046,188.459009 51.4880441,190.400505 54.4472046,190.264218 C58.5505258,190.075328 61.8360733,186.030943 60.6473506,181.992536" id="Fill-18" fill="#A87E21"></path>
                    <path d="M96.5366572,101.773125 C96.5643579,101.523265 96.5703798,101.272209 96.5474966,101.022349 C96.4740295,100.202235 96.3295039,99.5004748 96.0838105,98.8525125 C96.2379711,98.0551123 96.2343579,97.2397796 95.9910733,96.3598898 C95.5864017,94.9001813 94.603628,93.6353397 93.2884455,92.8714136 C91.373482,91.7572053 88.7828616,91.8839286 86.9485915,93.1141006 C82.3346134,91.8958836 80.2016572,95.9522235 80.8929711,100.042037 C81.3048689,102.483253 81.7842119,104.476156 83.513701,106.355486 C83.8075696,106.668708 84.1158908,106.967583 84.4314382,107.259286 C84.4302338,107.467303 84.4386645,107.675321 84.4205988,107.883338 C84.3724236,108.793115 84.4386645,109.620403 84.6048689,110.528985 C85.0637375,113.031172 87.978336,114.178854 90.2136645,113.567952 C92.5862922,112.918794 94.3976791,110.436931 95.5442484,108.427292 C96.6342119,106.518074 97.008774,103.952526 96.5366572,101.773125" id="Fill-19" fill="#A87E21"></path>
                    <path d="M119.779978,59.143898 C119.736621,59.1116195 119.692059,59.0817319 119.648701,59.0482578 C120.26173,59.5276543 120.128044,59.4236456 119.779978,59.143898" id="Fill-20" fill="#A87E21"></path>
                    <path d="M133.212424,48.2971041 C132.009248,46.3245251 130.265307,44.6149566 128.072132,43.7840823 C126.593154,43.2245872 125.100927,43.2473017 123.656876,43.6274715 C121.938227,42.8456129 119.731803,42.9161475 118.203446,43.8044059 C116.629321,44.7201608 115.763373,46.2037793 115.551402,47.8093391 C115.056402,49.6432399 115.4683,51.9505597 115.980161,53.6864293 C116.270416,54.6739143 116.720854,55.6542263 117.284504,56.5173791 C117.647022,57.0708968 118.085416,57.5825718 118.526219,58.0751188 C118.691219,58.2604217 119.37892,58.8211124 119.779978,59.143898 C121.267387,60.2736479 122.847533,60.9168282 124.770927,60.3920026 C126.867752,59.8193569 128.279285,58.0476223 128.570745,55.977012 C129.54027,56.0104861 130.519431,55.8012731 131.358883,55.3135081 C133.759212,53.9183567 134.670927,50.6905001 133.212424,48.2971041" id="Fill-21" fill="#A87E21"></path>
                    <path d="M22.3962557,130.163918 C22.3047229,127.803996 21.3966207,125.438096 20.7378251,123.23359 C19.623774,119.506013 14.0258178,120.252007 13.953555,124.144563 C13.8981536,127.130928 12.9599419,129.758642 13.5151609,132.184317 C12.6781171,133.147892 11.7579711,134.014631 11.2220222,135.316533 C9.57924845,139.303534 11.0401609,143.712547 15.0435185,145.3731 C18.7999784,146.932035 22.35892,142.941448 23.5319857,139.93715 C24.6833725,136.984259 24.7435915,132.606329 22.3962557,130.163918" id="Fill-22" fill="#A87E21"></path>
                    <path d="M106.127132,125.812289 C106.124723,125.813484 106.12111,125.81468 106.118701,125.81468 C106.795562,125.141612 107.608519,124.480499 108.226365,123.845687 C110.187095,121.832461 111.377022,119.170077 110.682095,116.374992 C109.937789,113.379063 106.195781,111.919354 103.564212,113.501004 C101.004905,115.03842 99.4187375,118.552002 97.9903433,121.11755 C96.4595769,123.864815 95.6682995,126.993445 96.7004528,130.070668 C97.7314017,133.14311 100.672497,134.763016 103.826767,134.066038 C106.47881,133.480241 108.638263,130.375521 108.765927,127.807582 C108.835781,126.38613 107.389321,125.557647 106.127132,125.812289" id="Fill-23" fill="#A87E21"></path>
                    <path d="M109.898044,127.83747 C108.410635,127.107018 106.890708,126.504485 105.282862,126.113555 C105.151584,126.082472 104.746913,125.94738 104.404869,125.837394 C104.322971,124.76981 103.41246,123.704618 102.267095,123.744069 C102.23819,123.745265 102.209285,123.750047 102.18038,123.752438 C100.888081,123.345967 99.4464382,124.032185 98.4431901,124.870233 C96.6727521,126.347874 96.193409,128.306107 96.5908543,130.495072 C96.923263,132.324191 98.2878251,133.776726 99.6764747,134.925604 C100.438847,135.555634 101.234942,136.150994 102.035854,136.732008 C102.256256,136.868295 102.474248,137.009365 102.689832,137.151629 C102.699467,137.157607 102.705489,137.161193 102.71392,137.167171 C105.123883,139.29397 108.733409,139.488837 111.106037,137.134892 C113.681,134.578908 113.385927,129.547038 109.898044,127.83747" id="Fill-24" fill="#A87E21"></path>
                    <path d="M147.878154,118.359526 C142.234431,118.604604 138.12027,122.375219 136.77257,127.719115 C136.365489,129.333043 136.259504,131.031852 136.24746,132.717511 C135.983701,134.378064 135.797022,136.046985 135.728373,137.748185 C135.689832,138.686655 135.245416,139.504378 135.047898,140.430893 C134.555307,142.731039 135.249029,144.59961 136.142679,146.690544 C137.932387,150.87002 145.519978,149.887317 146.16673,145.389837 C146.334139,144.2302 146.442533,143.096863 146.528044,141.969504 C146.54611,141.918098 146.561767,141.878646 146.581037,141.824849 C146.968847,140.711836 147.228993,139.443408 147.260307,138.262251 C147.306073,136.589743 147.174796,134.924408 147.054358,133.259073 C146.980891,132.233332 146.978482,131.184877 147.008592,130.140008 C147.460234,129.06286 148.416511,128.37425 150.378446,127.523053 C154.967132,125.532541 152.574029,118.156291 147.878154,118.359526" id="Fill-25" fill="#A87E21"></path>
                    <path d="M22.8226061,164.043262 C19.2696864,160.608583 24.408774,156.107517 23.0719127,151.497659 C22.4769492,149.447372 21.023263,147.651728 19.7827521,145.960092 C19.1239565,145.062269 18.5073141,144.156078 17.9268032,143.208045 C17.8870587,143.144683 17.8509273,143.117187 17.8135915,143.070562 C18.0123141,143.039479 18.2640295,142.965358 18.6301609,142.775273 C20.4427521,141.829631 20.9510003,139.392001 19.9706353,137.700365 C19.0986645,136.195228 18.3724236,134.500005 19.2708908,132.809565 C19.7743214,131.861531 18.9216207,130.309769 17.713628,130.799925 C14.5918762,132.065962 13.2104528,134.22743 12.9792119,137.142065 C8.30260611,139.928782 9.41063531,145.412552 12.6901609,150.075011 C13.5464747,151.290837 14.3847229,152.487535 15.1109638,153.787046 C15.7300149,154.895277 13.2718762,157.971305 12.7865112,159.01737 C10.7149784,163.477789 12.078336,167.971683 15.8829711,170.931747 C20.7197594,174.693993 27.4811463,168.54672 22.8226061,164.043262" id="Fill-26" fill="#A87E21"></path>
                    <path d="M49.6706353,270.04727 C42.4720587,267.571385 41.7470222,259.085708 39.6803068,252.742372 C38.2543214,248.365637 35.4336645,244.511337 33.7607813,240.238612 C32.7900514,237.756749 32.4251244,235.084801 31.9469857,232.483387 C31.2881901,228.898075 29.5743579,225.654677 28.7493579,222.126749 C28.5000514,221.061557 26.6802338,220.974285 26.4995769,222.126749 C25.5324601,228.258481 24.6665112,234.293378 25.7649054,240.521946 C26.8283725,246.548474 27.9412192,252.456647 28.7601974,258.520235 C30.158482,268.876873 34.6231171,280.273598 46.2983725,282.187598 C54.2954528,283.499064 57.5003068,272.740737 49.6706353,270.04727" id="Fill-27" fill="#A87E21"></path>
                    <path d="M72.4081171,214.757672 C71.6770587,212.901057 71.0050149,210.890222 70.7954528,208.89971 C70.5196499,206.29471 71.868555,205.674244 73.7076426,204.148783 C82.6260733,196.752209 76.1970952,183.864693 74.4615842,173.714877 C76.7691755,170.026752 76.6668032,163.786229 73.8943214,160.716179 C72.1612192,158.797397 68.3710368,159.176371 67.2220587,161.569767 C66.1573871,163.786229 66.4163287,165.565137 67.0594674,167.846155 C67.0654893,167.866479 67.0715112,167.885607 67.0775331,167.907126 C67.0401974,167.944187 67.0004528,167.970488 66.9631171,168.009939 C64.6001244,170.565923 63.6582995,173.898984 63.9473506,177.340836 C64.2520587,180.973968 64.6446864,185.496554 66.1585915,188.810487 C66.2091755,188.920473 66.2742119,189.016113 66.3332265,189.117731 C66.2573506,189.367591 66.1947229,189.619842 66.1164382,189.868506 C65.2998689,192.456769 65.6370952,194.021682 63.3849054,195.8245 C61.3567302,197.447992 59.8669127,199.286675 58.8997959,201.70159 C56.8077886,206.919958 57.653263,212.012798 59.4164747,216.978916 C59.9464017,222.928931 63.3608178,229.114461 66.7993214,233.391969 C70.8713287,238.457313 79.4826426,233.005822 77.5580441,227.175356 C76.1513287,222.910999 74.048482,218.929976 72.4081171,214.757672" id="Fill-28" fill="#A87E21"></path>
                    <path d="M55.4624966,187.848107 C56.2549784,184.417015 57.0667302,181.161662 55.254139,177.853706 C54.1256353,175.796247 50.7220587,175.694629 49.6236645,177.853706 C48.1169857,180.81138 45.1012192,182.124041 43.8715477,185.482208 C42.3925696,189.523006 43.4873506,194.582372 44.6857083,198.59687 C46.1165112,203.387248 51.8505623,203.488866 54.5568032,199.877253 C56.2622046,197.602212 56.5970222,195.110785 56.1092484,192.36352 C55.8719857,191.028144 55.1541755,189.182288 55.4624966,187.848107" id="Fill-29" fill="#A87E21"></path>
                    <path d="M100.730307,165.390593 C100.577351,163.083273 99.6162557,161.041355 98.4805258,159.062799 C98.154139,158.494935 97.7892119,157.946199 97.4134455,157.402246 C99.0080441,156.332271 99.8366572,154.280789 98.5937375,152.1779 C97.364066,150.097726 96.1163287,148.274584 94.5193214,146.457421 C92.2912192,143.922955 88.749139,144.659385 86.4295039,146.457421 C78.7624236,152.40385 85.2901609,159.6737 87.813336,166.083985 C88.0855258,166.778572 87.0618032,169.056004 86.7860003,169.907202 C86.0910733,172.049542 85.6478616,174.257635 85.7080806,176.513548 C85.8369492,181.368484 89.2164382,184.296269 93.7954893,184.778057 C97.5061828,185.168986 99.509066,181.128188 98.9357813,178.080852 C98.4154893,175.319241 98.1059638,176.040129 99.1104163,173.279714 C100.059467,170.672323 100.915781,168.210784 100.730307,165.390593" id="Fill-30" fill="#A87E21"></path>
                    <path d="M151.698446,172.311357 C150.512132,170.948484 150.543446,172.1404 151.122752,170.41529 C151.88392,168.149813 153.153336,166.069639 153.897643,163.786229 C155.358555,159.311463 150.628956,154.698019 146.151073,156.095562 C141.024029,157.696339 137.182059,161.884185 138.029942,167.460008 C138.090161,167.850937 138.179285,168.213175 138.287679,168.555088 C137.769796,170.292153 137.559029,172.10334 137.996219,174.086678 C138.545416,176.581692 139.814832,178.4933 141.451584,180.414473 C141.414248,180.371435 141.930927,180.710957 141.930927,181.024179 L141.930927,181.046894 C141.930927,181.790496 141.91527,182.532903 141.96465,183.276506 C141.982716,183.783399 142.083883,184.271164 142.232022,184.740996 C141.773154,185.304078 141.21673,185.828903 140.509759,186.299931 C137.361511,188.398038 134.745599,190.928917 133.542424,194.58835 C131.349248,201.253276 131.077059,212.499368 136.893008,217.547975 C140.765088,220.908532 148.43819,217.778707 146.313665,212.104852 C144.75881,207.952872 142.032095,199.751725 146.472643,196.424642 C149.264394,194.332512 151.850197,192.48307 153.172606,189.129686 C153.768774,187.617375 153.873555,186.240156 153.765161,184.90478 C155.977606,180.71813 155.104431,176.224237 151.698446,172.311357" id="Fill-31" fill="#A87E21"></path>
                </g>
            </g>
        </g>
    </g>
</svg>